<?xml version="1.0" encoding="UTF-8"?>
<svg id="Ebene_1" data-name="Ebene 1" xmlns="http://www.w3.org/2000/svg" viewBox="0 0 355 589">
  <defs>
    <style>
      .cls-1 {
        fill: #191919;
      }

      .cls-2 {
        fill: #53d75a;
      }

      .cls-3 {
        opacity: .15;
      }

      .cls-4 {
        opacity: .33;
      }

      .cls-5 {
        opacity: .29;
      }

      .cls-6 {
        opacity: .24;
      }

      .cls-7 {
        opacity: .25;
      }

      .cls-8 {
        opacity: .36;
      }
    </style>
  </defs>
  <rect class="cls-1" x="0" width="355" height="589"/>
  <polygon class="cls-2" points="61.94 119.67 61.94 119.67 61.94 119.67 61.94 119.67"/>
  <g>
    <polygon class="cls-2" points="357.47 271.71 353.42 265.05 350.46 265.05 350.47 268.41 357.56 280.15 361.8 280.15 361.8 245.02 357.47 245.02 357.47 271.71"/>
    <polygon class="cls-2" points="341.34 245.02 337.1 245.02 337.1 280.15 341.43 280.15 341.43 253.46 345.48 260.12 348.44 260.12 348.43 256.76 341.34 245.02"/>
  </g>
  <g class="cls-4">
    <g>
      <path class="cls-2" d="m100.56,11.92h-.05l-3.05,1.65-.46-1.81,3.83-2.05h2.02v17.54h-2.29v-15.33Z"/>
      <path class="cls-2" d="m95.4,59.65v-1.46l1.86-1.81c4.48-4.26,6.5-6.53,6.53-9.18,0-1.78-.86-3.43-3.48-3.43-1.59,0-2.92.81-3.72,1.49l-.76-1.67c1.21-1.03,2.94-1.78,4.97-1.78,3.78,0,5.37,2.59,5.37,5.1,0,3.24-2.35,5.86-6.05,9.42l-1.4,1.3v.05h7.88v1.97h-11.2Z"/>
      <path class="cls-2" d="m95.97,89.33c.68.43,2.24,1.11,3.89,1.11,3.05,0,4-1.94,3.97-3.4-.03-2.46-2.24-3.51-4.54-3.51h-1.32v-1.78h1.32c1.73,0,3.91-.89,3.91-2.97,0-1.4-.89-2.65-3.08-2.65-1.4,0-2.75.62-3.51,1.16l-.62-1.73c.92-.67,2.7-1.35,4.59-1.35,3.46,0,5.02,2.05,5.02,4.18,0,1.81-1.08,3.35-3.24,4.13v.05c2.16.43,3.91,2.05,3.91,4.51,0,2.81-2.19,5.26-6.4,5.26-1.97,0-3.7-.62-4.56-1.19l.65-1.84Z"/>
      <path class="cls-2" d="m105.88,108.9h-6.69l-.68,4.51c.41-.05.78-.11,1.43-.11,1.35,0,2.7.3,3.78.95,1.38.78,2.51,2.29,2.51,4.51,0,3.43-2.73,5.99-6.53,5.99-1.92,0-3.54-.54-4.37-1.08l.59-1.81c.73.43,2.16.97,3.75.97,2.24,0,4.16-1.46,4.16-3.81-.03-2.27-1.54-3.89-5.05-3.89-1,0-1.78.11-2.43.19l1.13-8.42h8.39v2Z"/>
      <path class="cls-2" d="m95.19,152.4c0-2.21,1.32-3.78,3.48-4.7l-.03-.08c-1.94-.92-2.78-2.43-2.78-3.94,0-2.78,2.35-4.67,5.43-4.67,3.4,0,5.1,2.13,5.1,4.32,0,1.48-.73,3.08-2.89,4.1v.08c2.19.86,3.54,2.4,3.54,4.54,0,3.05-2.62,5.1-5.97,5.1-3.67,0-5.88-2.19-5.88-4.75Zm9.45-.11c0-2.13-1.49-3.16-3.86-3.83-2.05.59-3.16,1.94-3.16,3.62-.08,1.78,1.27,3.35,3.51,3.35s3.51-1.32,3.51-3.13Zm-6.53-8.77c0,1.75,1.32,2.7,3.35,3.24,1.51-.51,2.67-1.59,2.67-3.18,0-1.4-.84-2.86-2.97-2.86-1.97,0-3.05,1.3-3.05,2.81Z"/>
      <path class="cls-2" d="m105.88,173.7h-6.69l-.68,4.51c.41-.05.78-.11,1.43-.11,1.35,0,2.7.3,3.78.95,1.38.78,2.51,2.29,2.51,4.51,0,3.43-2.73,5.99-6.53,5.99-1.92,0-3.54-.54-4.37-1.08l.59-1.81c.73.43,2.16.97,3.75.97,2.24,0,4.16-1.46,4.16-3.81-.03-2.27-1.54-3.89-5.05-3.89-1,0-1.78.11-2.43.19l1.13-8.42h8.39v2Z"/>
      <path class="cls-2" d="m95.19,217.2c0-2.21,1.32-3.78,3.48-4.7l-.03-.08c-1.94-.92-2.78-2.43-2.78-3.94,0-2.78,2.35-4.67,5.43-4.67,3.4,0,5.1,2.13,5.1,4.32,0,1.48-.73,3.08-2.89,4.1v.08c2.19.86,3.54,2.4,3.54,4.54,0,3.05-2.62,5.1-5.97,5.1-3.67,0-5.88-2.19-5.88-4.75Zm9.45-.11c0-2.13-1.49-3.16-3.86-3.83-2.05.59-3.16,1.94-3.16,3.62-.08,1.78,1.27,3.35,3.51,3.35s3.51-1.32,3.51-3.13Zm-6.53-8.77c0,1.75,1.32,2.7,3.35,3.24,1.51-.51,2.67-1.59,2.67-3.18,0-1.4-.84-2.86-2.97-2.86-1.97,0-3.05,1.3-3.05,2.81Z"/>
      <path class="cls-2" d="m95.4,254.05v-1.46l1.86-1.81c4.48-4.26,6.5-6.53,6.53-9.18,0-1.78-.86-3.43-3.48-3.43-1.59,0-2.92.81-3.72,1.49l-.76-1.67c1.21-1.03,2.94-1.78,4.97-1.78,3.78,0,5.37,2.59,5.37,5.1,0,3.24-2.35,5.86-6.05,9.42l-1.4,1.3v.05h7.88v1.97h-11.2Z"/>
      <path class="cls-2" d="m95.19,282c0-2.21,1.32-3.78,3.48-4.7l-.03-.08c-1.94-.92-2.78-2.43-2.78-3.94,0-2.78,2.35-4.67,5.43-4.67,3.4,0,5.1,2.13,5.1,4.32,0,1.48-.73,3.08-2.89,4.1v.08c2.19.86,3.54,2.4,3.54,4.54,0,3.05-2.62,5.1-5.97,5.1-3.67,0-5.88-2.19-5.88-4.75Zm9.45-.11c0-2.13-1.49-3.16-3.86-3.83-2.05.59-3.16,1.94-3.16,3.62-.08,1.78,1.27,3.35,3.51,3.35s3.51-1.32,3.51-3.13Zm-6.53-8.77c0,1.75,1.32,2.7,3.35,3.24,1.51-.51,2.67-1.59,2.67-3.18,0-1.4-.84-2.86-2.97-2.86-1.97,0-3.05,1.3-3.05,2.81Z"/>
      <path class="cls-2" d="m100.56,303.52h-.05l-3.05,1.65-.46-1.81,3.83-2.05h2.02v17.54h-2.29v-15.33Z"/>
    </g>
  </g>
  <g>
    <path class="cls-2" d="m255.63,272.36h-.05l-3.05,1.65-.46-1.81,3.83-2.05h2.02v17.54h-2.29v-15.33Z"/>
    <path class="cls-2" d="m250.48,320.09v-1.46l1.86-1.81c4.48-4.26,6.5-6.53,6.53-9.18,0-1.78-.86-3.43-3.48-3.43-1.59,0-2.92.81-3.72,1.49l-.76-1.67c1.21-1.03,2.94-1.78,4.97-1.78,3.78,0,5.37,2.59,5.37,5.1,0,3.24-2.35,5.86-6.05,9.42l-1.4,1.3v.05h7.88v1.97h-11.2Z"/>
    <path class="cls-2" d="m251.04,349.76c.67.43,2.24,1.11,3.89,1.11,3.05,0,4-1.94,3.97-3.4-.03-2.46-2.24-3.51-4.53-3.51h-1.32v-1.78h1.32c1.73,0,3.91-.89,3.91-2.97,0-1.4-.89-2.65-3.08-2.65-1.4,0-2.75.62-3.51,1.16l-.62-1.73c.92-.67,2.7-1.35,4.59-1.35,3.46,0,5.02,2.05,5.02,4.18,0,1.81-1.08,3.35-3.24,4.13v.05c2.16.43,3.91,2.05,3.91,4.51,0,2.81-2.19,5.26-6.4,5.26-1.97,0-3.7-.62-4.56-1.19l.65-1.84Z"/>
    <path class="cls-2" d="m260.95,369.34h-6.69l-.67,4.51c.41-.05.78-.11,1.43-.11,1.35,0,2.7.3,3.78.95,1.38.78,2.51,2.29,2.51,4.51,0,3.43-2.73,5.99-6.53,5.99-1.92,0-3.54-.54-4.37-1.08l.59-1.81c.73.43,2.16.97,3.75.97,2.24,0,4.16-1.46,4.16-3.81-.03-2.27-1.54-3.89-5.05-3.89-1,0-1.78.11-2.43.19l1.13-8.42h8.39v2Z"/>
    <path class="cls-2" d="m250.26,412.84c0-2.21,1.32-3.78,3.48-4.7l-.03-.08c-1.94-.92-2.78-2.43-2.78-3.94,0-2.78,2.35-4.67,5.43-4.67,3.4,0,5.1,2.13,5.1,4.32,0,1.48-.73,3.08-2.89,4.1v.08c2.19.86,3.54,2.4,3.54,4.54,0,3.05-2.62,5.1-5.97,5.1-3.67,0-5.88-2.19-5.88-4.75Zm9.45-.11c0-2.13-1.49-3.16-3.86-3.83-2.05.59-3.16,1.94-3.16,3.62-.08,1.78,1.27,3.35,3.51,3.35s3.51-1.32,3.51-3.13Zm-6.53-8.77c0,1.75,1.32,2.7,3.35,3.24,1.51-.51,2.67-1.59,2.67-3.18,0-1.4-.84-2.86-2.97-2.86-1.97,0-3.05,1.3-3.05,2.81Z"/>
    <path class="cls-2" d="m248.71,434.36h-.05l-3.05,1.65-.46-1.81,3.83-2.05h2.02v17.54h-2.29v-15.33Z"/>
    <path class="cls-2" d="m257.97,446.96c.67.43,2.24,1.11,3.89,1.11,3.05,0,4-1.94,3.97-3.4-.03-2.46-2.24-3.51-4.54-3.51h-1.32v-1.78h1.32c1.73,0,3.91-.89,3.91-2.97,0-1.4-.89-2.65-3.08-2.65-1.4,0-2.75.62-3.51,1.16l-.62-1.73c.92-.67,2.7-1.35,4.59-1.35,3.46,0,5.02,2.05,5.02,4.18,0,1.81-1.08,3.35-3.24,4.13v.05c2.16.43,3.91,2.05,3.91,4.51,0,2.81-2.19,5.26-6.4,5.26-1.97,0-3.7-.62-4.56-1.19l.65-1.84Z"/>
    <path class="cls-2" d="m243.55,482.09v-1.46l1.86-1.81c4.48-4.26,6.51-6.53,6.53-9.18,0-1.78-.86-3.43-3.48-3.43-1.59,0-2.92.81-3.73,1.49l-.76-1.67c1.21-1.03,2.94-1.78,4.97-1.78,3.78,0,5.37,2.59,5.37,5.1,0,3.24-2.35,5.86-6.05,9.42l-1.4,1.3v.05h7.88v1.97h-11.2Z"/>
    <path class="cls-2" d="m269.06,473.13c0,5.97-2.21,9.26-6.1,9.26-3.43,0-5.75-3.21-5.8-9.02,0-5.88,2.54-9.12,6.1-9.12s5.8,3.29,5.8,8.88Zm-9.53.27c0,4.56,1.4,7.15,3.56,7.15,2.43,0,3.59-2.83,3.59-7.31s-1.11-7.15-3.56-7.15c-2.08,0-3.59,2.54-3.59,7.32Z"/>
  </g>
  <g>
    <path class="cls-2" d="m159.52,335.17c.67.43,2.24,1.11,3.89,1.11,3.05,0,4-1.94,3.97-3.4-.03-2.46-2.24-3.51-4.54-3.51h-1.32v-1.78h1.32c1.73,0,3.91-.89,3.91-2.97,0-1.4-.89-2.65-3.08-2.65-1.4,0-2.75.62-3.51,1.16l-.62-1.73c.92-.67,2.7-1.35,4.59-1.35,3.46,0,5.02,2.05,5.02,4.18,0,1.81-1.08,3.35-3.24,4.13v.05c2.16.43,3.91,2.05,3.91,4.51,0,2.81-2.19,5.26-6.4,5.26-1.97,0-3.7-.62-4.56-1.19l.65-1.84Z"/>
    <path class="cls-2" d="m169.43,354.75h-6.69l-.67,4.51c.41-.05.78-.11,1.43-.11,1.35,0,2.7.3,3.78.95,1.38.78,2.51,2.29,2.51,4.51,0,3.43-2.73,5.99-6.53,5.99-1.92,0-3.54-.54-4.37-1.08l.59-1.81c.73.43,2.16.97,3.75.97,2.24,0,4.16-1.46,4.16-3.81-.03-2.27-1.54-3.89-5.05-3.89-1,0-1.78.11-2.43.19l1.13-8.42h8.4v2Z"/>
    <path class="cls-2" d="m157.19,419.76h-.05l-3.05,1.65-.46-1.81,3.83-2.05h2.03v17.54h-2.29v-15.33Z"/>
    <path class="cls-2" d="m166.45,432.37c.68.43,2.24,1.11,3.89,1.11,3.05,0,4-1.94,3.97-3.4-.03-2.46-2.24-3.51-4.54-3.51h-1.32v-1.78h1.32c1.73,0,3.91-.89,3.91-2.97,0-1.4-.89-2.65-3.08-2.65-1.4,0-2.75.62-3.51,1.16l-.62-1.73c.92-.67,2.7-1.35,4.59-1.35,3.46,0,5.02,2.05,5.02,4.18,0,1.81-1.08,3.35-3.24,4.13v.05c2.16.43,3.91,2.05,3.91,4.51,0,2.81-2.19,5.26-6.4,5.26-1.97,0-3.7-.62-4.56-1.19l.65-1.84Z"/>
    <path class="cls-2" d="m152.03,467.5v-1.46l1.86-1.81c4.48-4.26,6.51-6.53,6.53-9.18,0-1.78-.86-3.43-3.48-3.43-1.59,0-2.92.81-3.73,1.49l-.76-1.67c1.21-1.03,2.94-1.78,4.97-1.78,3.78,0,5.37,2.59,5.37,5.1,0,3.24-2.35,5.86-6.05,9.42l-1.4,1.3v.05h7.88v1.97h-11.2Z"/>
    <path class="cls-2" d="m177.54,458.53c0,5.97-2.21,9.26-6.1,9.26-3.43,0-5.75-3.21-5.8-9.02,0-5.88,2.54-9.12,6.1-9.12s5.8,3.29,5.8,8.88Zm-9.53.27c0,4.56,1.4,7.15,3.56,7.15,2.43,0,3.59-2.83,3.59-7.31s-1.11-7.15-3.56-7.15c-2.08,0-3.59,2.54-3.59,7.32Z"/>
  </g>
  <g>
    <path class="cls-2" d="m20.48,52.1v-3.35l4.28-4.15c10.29-9.79,14.94-15,15-21.08,0-4.09-1.98-7.87-8-7.87-3.66,0-6.7,1.86-8.56,3.41l-1.74-3.84c2.79-2.36,6.76-4.09,11.41-4.09,8.68,0,12.34,5.95,12.34,11.72,0,7.44-5.39,13.45-13.89,21.64l-3.22,2.98v.12h18.1v4.53h-25.73Z"/>
    <path class="cls-2" d="m21.78,108.84c1.55.99,5.15,2.54,8.93,2.54,7.01,0,9.18-4.46,9.11-7.81-.06-5.64-5.15-8.06-10.42-8.06h-3.04v-4.09h3.04c3.97,0,8.99-2.05,8.99-6.82,0-3.22-2.05-6.08-7.07-6.08-3.22,0-6.32,1.43-8.06,2.67l-1.43-3.97c2.11-1.55,6.2-3.1,10.54-3.1,7.94,0,11.53,4.71,11.53,9.61,0,4.15-2.48,7.69-7.44,9.49v.12c4.96.99,8.99,4.71,8.99,10.35,0,6.45-5.02,12.09-14.69,12.09-4.53,0-8.49-1.43-10.48-2.73l1.49-4.22Z"/>
    <path class="cls-2" d="m44.53,142.39h-15.38l-1.55,10.35c.93-.12,1.8-.25,3.29-.25,3.1,0,6.2.68,8.68,2.17,3.16,1.8,5.77,5.27,5.77,10.35,0,7.87-6.26,13.76-15,13.76-4.4,0-8.12-1.24-10.04-2.48l1.36-4.15c1.67.99,4.96,2.23,8.62,2.23,5.15,0,9.55-3.35,9.55-8.74-.06-5.21-3.53-8.93-11.59-8.93-2.29,0-4.09.25-5.58.43l2.6-19.34h19.28v4.59Z"/>
    <path class="cls-2" d="m19.98,230.87c0-5.08,3.04-8.68,8-10.79l-.06-.19c-4.46-2.11-6.39-5.58-6.39-9.05,0-6.39,5.39-10.73,12.46-10.73,7.81,0,11.72,4.9,11.72,9.92,0,3.41-1.67,7.07-6.63,9.42v.19c5.02,1.98,8.12,5.52,8.12,10.42,0,7.01-6.01,11.72-13.7,11.72-8.43,0-13.52-5.02-13.52-10.91Zm21.7-.25c0-4.9-3.41-7.25-8.87-8.8-4.71,1.36-7.25,4.46-7.25,8.31-.19,4.09,2.91,7.69,8.06,7.69s8.06-3.04,8.06-7.19Zm-15-20.15c0,4.03,3.04,6.2,7.69,7.44,3.47-1.18,6.14-3.66,6.14-7.32,0-3.22-1.92-6.57-6.82-6.57-4.53,0-7.01,2.98-7.01,6.45Z"/>
  </g>
  <g>
    <path class="cls-2" d="m67.83,153.01h-.05l-3.05,1.65-.46-1.81,3.83-2.05h2.02v17.54h-2.29v-15.33Z"/>
    <path class="cls-2" d="m62.67,200.74v-1.46l1.86-1.81c4.48-4.26,6.5-6.53,6.53-9.18,0-1.78-.86-3.43-3.48-3.43-1.59,0-2.92.81-3.73,1.49l-.76-1.67c1.21-1.03,2.94-1.78,4.97-1.78,3.78,0,5.37,2.59,5.37,5.1,0,3.24-2.35,5.86-6.05,9.42l-1.4,1.3v.05h7.88v1.97h-11.2Z"/>
    <path class="cls-2" d="m63.24,230.41c.67.43,2.24,1.11,3.89,1.11,3.05,0,4-1.94,3.97-3.4-.03-2.46-2.24-3.51-4.54-3.51h-1.32v-1.78h1.32c1.73,0,3.91-.89,3.91-2.97,0-1.4-.89-2.65-3.08-2.65-1.4,0-2.75.62-3.51,1.16l-.62-1.73c.92-.67,2.7-1.35,4.59-1.35,3.46,0,5.02,2.05,5.02,4.18,0,1.81-1.08,3.35-3.24,4.13v.05c2.16.43,3.91,2.05,3.91,4.51,0,2.81-2.19,5.26-6.4,5.26-1.97,0-3.7-.62-4.56-1.19l.65-1.84Z"/>
    <path class="cls-2" d="m73.15,249.99h-6.69l-.67,4.51c.41-.05.78-.11,1.43-.11,1.35,0,2.7.3,3.78.95,1.38.78,2.51,2.29,2.51,4.51,0,3.43-2.73,5.99-6.53,5.99-1.92,0-3.54-.54-4.37-1.08l.59-1.81c.73.43,2.16.97,3.75.97,2.24,0,4.16-1.46,4.16-3.81-.03-2.27-1.54-3.89-5.05-3.89-1,0-1.78.11-2.43.19l1.13-8.42h8.4v2Z"/>
    <path class="cls-2" d="m62.46,293.48c0-2.21,1.32-3.78,3.48-4.7l-.03-.08c-1.94-.92-2.78-2.43-2.78-3.94,0-2.78,2.35-4.67,5.43-4.67,3.4,0,5.1,2.13,5.1,4.32,0,1.48-.73,3.08-2.89,4.1v.08c2.19.86,3.54,2.4,3.54,4.54,0,3.05-2.62,5.1-5.97,5.1-3.67,0-5.88-2.19-5.88-4.75Zm9.45-.11c0-2.13-1.49-3.16-3.86-3.83-2.05.59-3.16,1.94-3.16,3.62-.08,1.78,1.27,3.35,3.51,3.35s3.51-1.32,3.51-3.13Zm-6.53-8.77c0,1.75,1.32,2.7,3.35,3.24,1.51-.51,2.67-1.59,2.67-3.18,0-1.4-.84-2.86-2.97-2.86-1.97,0-3.05,1.3-3.05,2.81Z"/>
  </g>
  <g>
    <path class="cls-2" d="m125.12,179.93c.67.43,2.24,1.11,3.89,1.11,3.05,0,4-1.94,3.97-3.4-.03-2.46-2.24-3.51-4.54-3.51h-1.32v-1.78h1.32c1.73,0,3.91-.89,3.91-2.97,0-1.4-.89-2.65-3.08-2.65-1.4,0-2.75.62-3.51,1.16l-.62-1.73c.92-.67,2.7-1.35,4.59-1.35,3.46,0,5.02,2.05,5.02,4.18,0,1.81-1.08,3.35-3.24,4.13v.05c2.16.43,3.91,2.05,3.91,4.51,0,2.81-2.19,5.26-6.4,5.26-1.97,0-3.7-.62-4.56-1.19l.65-1.84Z"/>
    <path class="cls-2" d="m135.03,199.5h-6.69l-.67,4.51c.4-.05.78-.11,1.43-.11,1.35,0,2.7.3,3.78.95,1.38.78,2.51,2.29,2.51,4.51,0,3.43-2.73,5.99-6.53,5.99-1.92,0-3.54-.54-4.37-1.08l.59-1.81c.73.43,2.16.97,3.75.97,2.24,0,4.16-1.46,4.16-3.81-.03-2.27-1.54-3.89-5.05-3.89-1,0-1.78.11-2.43.19l1.13-8.42h8.4v2Z"/>
    <path class="cls-2" d="m124.34,243c0-2.21,1.32-3.78,3.48-4.7l-.03-.08c-1.94-.92-2.78-2.43-2.78-3.94,0-2.78,2.35-4.67,5.43-4.67,3.4,0,5.1,2.13,5.1,4.32,0,1.48-.73,3.08-2.89,4.1v.08c2.19.86,3.54,2.4,3.54,4.54,0,3.05-2.62,5.1-5.96,5.1-3.67,0-5.88-2.19-5.88-4.75Zm9.45-.11c0-2.13-1.48-3.16-3.86-3.83-2.05.59-3.16,1.94-3.16,3.62-.08,1.78,1.27,3.35,3.51,3.35s3.51-1.32,3.51-3.13Zm-6.53-8.77c0,1.75,1.32,2.7,3.35,3.24,1.51-.51,2.67-1.59,2.67-3.18,0-1.4-.84-2.86-2.97-2.86-1.97,0-3.05,1.3-3.05,2.81Z"/>
    <path class="cls-2" d="m122.79,264.52h-.05l-3.05,1.65-.46-1.81,3.83-2.05h2.02v17.54h-2.29v-15.33Z"/>
    <path class="cls-2" d="m132.05,277.13c.67.43,2.24,1.11,3.89,1.11,3.05,0,4-1.94,3.97-3.4-.03-2.46-2.24-3.51-4.53-3.51h-1.32v-1.78h1.32c1.73,0,3.91-.89,3.91-2.97,0-1.4-.89-2.65-3.08-2.65-1.4,0-2.75.62-3.51,1.16l-.62-1.73c.92-.67,2.7-1.35,4.59-1.35,3.46,0,5.02,2.05,5.02,4.18,0,1.81-1.08,3.35-3.24,4.13v.05c2.16.43,3.91,2.05,3.91,4.51,0,2.81-2.19,5.26-6.4,5.26-1.97,0-3.7-.62-4.56-1.19l.65-1.84Z"/>
  </g>
  <g>
    <path class="cls-2" d="m.38,48.97h-.05l-3.05,1.65-.46-1.81,3.83-2.05h2.02v17.54H.38v-15.33Z"/>
    <path class="cls-2" d="m-4.78,96.7v-1.46l1.86-1.81c4.48-4.26,6.51-6.53,6.53-9.18,0-1.78-.86-3.43-3.48-3.43-1.59,0-2.92.81-3.73,1.49l-.76-1.67c1.21-1.03,2.94-1.78,4.97-1.78,3.78,0,5.37,2.59,5.37,5.1,0,3.24-2.35,5.86-6.05,9.42l-1.4,1.3v.05h7.88v1.97H-4.78Z"/>
    <path class="cls-2" d="m-4.21,126.37c.67.43,2.24,1.11,3.89,1.11,3.05,0,4-1.94,3.97-3.4-.03-2.46-2.24-3.51-4.54-3.51h-1.32v-1.78H-.89c1.73,0,3.91-.89,3.91-2.97,0-1.4-.89-2.65-3.08-2.65-1.4,0-2.75.62-3.51,1.16l-.62-1.73c.92-.67,2.7-1.35,4.59-1.35,3.46,0,5.02,2.05,5.02,4.18,0,1.81-1.08,3.35-3.24,4.13v.05c2.16.43,3.91,2.05,3.91,4.51,0,2.81-2.19,5.26-6.4,5.26-1.97,0-3.7-.62-4.56-1.19l.65-1.84Z"/>
    <path class="cls-2" d="m5.7,145.95H-1l-.67,4.51c.4-.05.78-.11,1.43-.11,1.35,0,2.7.3,3.78.95,1.38.78,2.51,2.29,2.51,4.51,0,3.43-2.73,5.99-6.53,5.99-1.92,0-3.54-.54-4.37-1.08l.59-1.81c.73.43,2.16.97,3.75.97,2.24,0,4.16-1.46,4.16-3.81-.03-2.27-1.54-3.89-5.05-3.89-1,0-1.78.11-2.43.19l1.13-8.42H5.7v2Z"/>
    <path class="cls-2" d="m-4.99,189.44c0-2.21,1.32-3.78,3.48-4.7l-.03-.08c-1.94-.92-2.78-2.43-2.78-3.94,0-2.78,2.35-4.67,5.43-4.67,3.4,0,5.1,2.13,5.1,4.32,0,1.48-.73,3.08-2.89,4.1v.08c2.19.86,3.54,2.4,3.54,4.54,0,3.05-2.62,5.1-5.96,5.1-3.67,0-5.88-2.19-5.88-4.75Zm9.45-.11c0-2.13-1.48-3.16-3.86-3.83-2.05.59-3.16,1.94-3.16,3.62-.08,1.78,1.27,3.35,3.51,3.35s3.51-1.32,3.51-3.13Zm-6.53-8.77c0,1.75,1.32,2.7,3.35,3.24,1.51-.51,2.67-1.59,2.67-3.18,0-1.4-.84-2.86-2.97-2.86-1.97,0-3.05,1.3-3.05,2.81Z"/>
    <path class="cls-2" d="m2.72,223.57c.67.43,2.24,1.11,3.89,1.11,3.05,0,4-1.94,3.97-3.4-.03-2.46-2.24-3.51-4.53-3.51h-1.32v-1.78h1.32c1.73,0,3.91-.89,3.91-2.97,0-1.4-.89-2.65-3.08-2.65-1.4,0-2.75.62-3.51,1.16l-.62-1.73c.92-.67,2.7-1.35,4.59-1.35,3.46,0,5.02,2.05,5.02,4.18,0,1.81-1.08,3.35-3.24,4.13v.05c2.16.43,3.91,2.05,3.91,4.51,0,2.81-2.19,5.26-6.4,5.26-1.97,0-3.7-.62-4.56-1.19l.65-1.84Z"/>
    <path class="cls-2" d="m13.81,249.74c0,5.97-2.21,9.26-6.1,9.26-3.43,0-5.75-3.21-5.8-9.02,0-5.88,2.54-9.12,6.1-9.12s5.8,3.29,5.8,8.88Zm-9.53.27c0,4.56,1.4,7.15,3.56,7.15,2.43,0,3.59-2.83,3.59-7.31s-1.11-7.15-3.56-7.15c-2.08,0-3.59,2.54-3.59,7.32Z"/>
    <path class="cls-2" d="m-4.36,291.1v-4.78h-8.15v-1.57l7.83-11.2h2.56v10.9H.34v1.86h-2.46v4.78h-2.24Zm0-6.64v-5.86c0-.92.03-1.83.08-2.75h-.08c-.54,1.03-.97,1.78-1.46,2.59l-4.29,5.96v.05h5.75Z"/>
    <path class="cls-2" d="m13.81,282.14c0,5.97-2.21,9.26-6.1,9.26-3.43,0-5.75-3.21-5.8-9.02,0-5.88,2.54-9.12,6.1-9.12s5.8,3.29,5.8,8.88Zm-9.53.27c0,4.56,1.4,7.15,3.56,7.15,2.43,0,3.59-2.83,3.59-7.31s-1.11-7.15-3.56-7.15c-2.08,0-3.59,2.54-3.59,7.32Z"/>
    <path class="cls-2" d="m13.81,314.54c0,5.97-2.21,9.26-6.1,9.26-3.43,0-5.75-3.21-5.8-9.02,0-5.88,2.54-9.12,6.1-9.12s5.8,3.29,5.8,8.88Zm-9.53.27c0,4.56,1.4,7.15,3.56,7.15,2.43,0,3.59-2.83,3.59-7.31s-1.11-7.15-3.56-7.15c-2.08,0-3.59,2.54-3.59,7.32Z"/>
    <path class="cls-2" d="m5.7,340.35H-1l-.67,4.51c.4-.05.78-.11,1.43-.11,1.35,0,2.7.3,3.78.95,1.38.78,2.51,2.29,2.51,4.51,0,3.43-2.73,5.99-6.53,5.99-1.92,0-3.54-.54-4.37-1.08l.59-1.81c.73.43,2.16.97,3.75.97,2.24,0,4.16-1.46,4.16-3.81-.03-2.27-1.54-3.89-5.05-3.89-1,0-1.78.11-2.43.19l1.13-8.42H5.7v2Z"/>
    <path class="cls-2" d="m-4.99,383.85c0-2.21,1.32-3.78,3.48-4.7l-.03-.08c-1.94-.92-2.78-2.43-2.78-3.94,0-2.78,2.35-4.67,5.43-4.67,3.4,0,5.1,2.13,5.1,4.32,0,1.48-.73,3.08-2.89,4.1v.08c2.19.86,3.54,2.4,3.54,4.54,0,3.05-2.62,5.1-5.96,5.1-3.67,0-5.88-2.19-5.88-4.75Zm9.45-.11c0-2.13-1.48-3.16-3.86-3.83-2.05.59-3.16,1.94-3.16,3.62-.08,1.78,1.27,3.35,3.51,3.35s3.51-1.32,3.51-3.13Zm-6.53-8.77c0,1.75,1.32,2.7,3.35,3.24,1.51-.51,2.67-1.59,2.67-3.18,0-1.4-.84-2.86-2.97-2.86-1.97,0-3.05,1.3-3.05,2.81Z"/>
    <path class="cls-2" d="m-4.78,420.7v-1.46l1.86-1.81c4.48-4.26,6.51-6.53,6.53-9.18,0-1.78-.86-3.43-3.48-3.43-1.59,0-2.92.81-3.73,1.49l-.76-1.67c1.21-1.03,2.94-1.78,4.97-1.78,3.78,0,5.37,2.59,5.37,5.1,0,3.24-2.35,5.86-6.05,9.42l-1.4,1.3v.05h7.88v1.97H-4.78Z"/>
  </g>
  <g>
    <path class="cls-2" d="m129.84,410.28h-.04l-2.37,1.28-.36-1.41,2.98-1.6h1.57v13.65h-1.78v-11.93Z"/>
    <path class="cls-2" d="m125.83,447.41v-1.13l1.45-1.41c3.49-3.32,5.06-5.08,5.08-7.14,0-1.38-.67-2.67-2.71-2.67-1.24,0-2.27.63-2.9,1.15l-.59-1.3c.95-.8,2.29-1.39,3.86-1.39,2.94,0,4.18,2.02,4.18,3.97,0,2.52-1.83,4.56-4.7,7.33l-1.09,1.01v.04h6.13v1.53h-8.71Z"/>
    <path class="cls-2" d="m126.27,470.49c.53.34,1.74.86,3.02.86,2.37,0,3.11-1.51,3.09-2.65-.02-1.91-1.74-2.73-3.53-2.73h-1.03v-1.39h1.03c1.34,0,3.04-.69,3.04-2.31,0-1.09-.69-2.06-2.39-2.06-1.09,0-2.14.48-2.73.9l-.48-1.34c.71-.52,2.1-1.05,3.57-1.05,2.69,0,3.91,1.6,3.91,3.25,0,1.41-.84,2.6-2.52,3.21v.04c1.68.34,3.04,1.6,3.04,3.51,0,2.18-1.7,4.09-4.98,4.09-1.53,0-2.88-.48-3.55-.92l.5-1.43Z"/>
    <path class="cls-2" d="m133.97,485.71h-5.21l-.52,3.51c.32-.04.61-.08,1.11-.08,1.05,0,2.1.23,2.94.74,1.07.61,1.95,1.78,1.95,3.51,0,2.67-2.12,4.66-5.08,4.66-1.49,0-2.75-.42-3.4-.84l.46-1.41c.57.34,1.68.76,2.92.76,1.74,0,3.23-1.13,3.23-2.96-.02-1.76-1.2-3.02-3.93-3.02-.78,0-1.39.08-1.89.15l.88-6.55h6.53v1.55Z"/>
    <path class="cls-2" d="m125.66,519.54c0-1.72,1.03-2.94,2.71-3.65l-.02-.06c-1.51-.71-2.16-1.89-2.16-3.07,0-2.16,1.83-3.63,4.22-3.63,2.64,0,3.97,1.66,3.97,3.36,0,1.15-.57,2.39-2.25,3.19v.06c1.7.67,2.75,1.87,2.75,3.53,0,2.37-2.04,3.97-4.64,3.97-2.86,0-4.58-1.7-4.58-3.7Zm7.35-.08c0-1.66-1.16-2.46-3-2.98-1.6.46-2.46,1.51-2.46,2.81-.06,1.38.99,2.6,2.73,2.6s2.73-1.03,2.73-2.44Zm-5.08-6.82c0,1.37,1.03,2.1,2.6,2.52,1.18-.4,2.08-1.24,2.08-2.48,0-1.09-.65-2.23-2.31-2.23-1.53,0-2.37,1.01-2.37,2.18Z"/>
  </g>
  <g>
    <path class="cls-2" d="m214.28,31.41c1.55.99,5.15,2.54,8.93,2.54,7.01,0,9.18-4.46,9.11-7.81-.06-5.64-5.15-8.06-10.42-8.06h-3.04v-4.09h3.04c3.97,0,8.99-2.05,8.99-6.82,0-3.22-2.04-6.08-7.07-6.08-3.22,0-6.32,1.43-8.06,2.67l-1.43-3.97c2.11-1.55,6.2-3.1,10.54-3.1,7.94,0,11.53,4.71,11.53,9.61,0,4.15-2.48,7.69-7.44,9.49v.12c4.96.99,8.99,4.71,8.99,10.35,0,6.45-5.02,12.09-14.69,12.09-4.53,0-8.49-1.43-10.48-2.73l1.49-4.22Z"/>
    <path class="cls-2" d="m212.48,90.44c0-5.08,3.04-8.68,8-10.79l-.06-.19c-4.46-2.11-6.39-5.58-6.39-9.05,0-6.39,5.39-10.73,12.46-10.73,7.81,0,11.72,4.9,11.72,9.92,0,3.41-1.67,7.07-6.63,9.42v.19c5.02,1.98,8.12,5.52,8.12,10.42,0,7.01-6.01,11.72-13.7,11.72-8.43,0-13.51-5.02-13.51-10.91Zm21.7-.25c0-4.9-3.41-7.25-8.87-8.8-4.71,1.36-7.25,4.46-7.25,8.31-.19,4.09,2.91,7.69,8.06,7.69s8.06-3.04,8.06-7.19Zm-15-20.15c0,4.03,3.04,6.2,7.69,7.44,3.47-1.18,6.14-3.66,6.14-7.32,0-3.22-1.92-6.57-6.82-6.57-4.53,0-7.01,2.98-7.01,6.45Z"/>
    <path class="cls-2" d="m214.28,157.41c1.55.99,5.15,2.54,8.93,2.54,7.01,0,9.18-4.46,9.11-7.81-.06-5.64-5.15-8.06-10.42-8.06h-3.04v-4.09h3.04c3.97,0,8.99-2.05,8.99-6.82,0-3.22-2.04-6.08-7.07-6.08-3.22,0-6.32,1.43-8.06,2.67l-1.43-3.97c2.11-1.55,6.2-3.1,10.54-3.1,7.94,0,11.53,4.71,11.53,9.61,0,4.15-2.48,7.69-7.44,9.49v.12c4.96.99,8.99,4.71,8.99,10.35,0,6.45-5.02,12.09-14.69,12.09-4.53,0-8.49-1.43-10.48-2.73l1.49-4.22Z"/>
    <path class="cls-2" d="m237.03,190.96h-15.38l-1.55,10.35c.93-.12,1.8-.25,3.29-.25,3.1,0,6.2.68,8.68,2.17,3.16,1.8,5.77,5.27,5.77,10.35,0,7.87-6.26,13.76-15,13.76-4.4,0-8.12-1.24-10.04-2.48l1.36-4.15c1.67.99,4.96,2.23,8.62,2.23,5.15,0,9.55-3.35,9.55-8.74-.06-5.21-3.53-8.93-11.59-8.93-2.29,0-4.09.25-5.58.43l2.6-19.34h19.28v4.59Z"/>
    <path class="cls-2" d="m212.98,289.67v-3.35l4.28-4.15c10.29-9.79,14.94-15,15-21.08,0-4.09-1.98-7.87-8-7.87-3.66,0-6.7,1.86-8.56,3.41l-1.74-3.84c2.79-2.36,6.76-4.09,11.41-4.09,8.68,0,12.34,5.95,12.34,11.72,0,7.44-5.39,13.45-13.89,21.64l-3.22,2.98v.12h18.1v4.53h-25.73Z"/>
  </g>
  <g>
    <path class="cls-2" d="m67.83,322.81h-.05l-3.05,1.65-.46-1.81,3.83-2.05h2.03v17.54h-2.29v-15.33Z"/>
    <path class="cls-2" d="m62.67,370.55v-1.46l1.86-1.81c4.48-4.26,6.51-6.53,6.53-9.18,0-1.78-.86-3.43-3.48-3.43-1.59,0-2.92.81-3.73,1.49l-.76-1.67c1.21-1.03,2.94-1.78,4.97-1.78,3.78,0,5.37,2.59,5.37,5.1,0,3.24-2.35,5.86-6.05,9.42l-1.4,1.3v.05h7.88v1.97h-11.2Z"/>
    <path class="cls-2" d="m63.24,400.22c.67.43,2.24,1.11,3.89,1.11,3.05,0,3.99-1.94,3.97-3.4-.03-2.46-2.24-3.51-4.53-3.51h-1.32v-1.78h1.32c1.73,0,3.91-.89,3.91-2.97,0-1.4-.89-2.65-3.08-2.65-1.4,0-2.75.62-3.51,1.16l-.62-1.73c.92-.67,2.7-1.35,4.59-1.35,3.46,0,5.02,2.05,5.02,4.18,0,1.81-1.08,3.35-3.24,4.13v.05c2.16.43,3.91,2.05,3.91,4.51,0,2.81-2.19,5.26-6.4,5.26-1.97,0-3.7-.62-4.56-1.19l.65-1.84Z"/>
    <path class="cls-2" d="m73.15,419.8h-6.7l-.67,4.51c.4-.05.78-.11,1.43-.11,1.35,0,2.7.3,3.78.95,1.38.78,2.51,2.29,2.51,4.51,0,3.43-2.73,5.99-6.53,5.99-1.92,0-3.54-.54-4.37-1.08l.59-1.81c.73.43,2.16.97,3.75.97,2.24,0,4.16-1.46,4.16-3.81-.03-2.27-1.54-3.89-5.05-3.89-1,0-1.78.11-2.43.19l1.13-8.42h8.4v2Z"/>
    <path class="cls-2" d="m62.46,463.29c0-2.21,1.32-3.78,3.48-4.7l-.03-.08c-1.94-.92-2.78-2.43-2.78-3.94,0-2.78,2.35-4.67,5.43-4.67,3.4,0,5.1,2.13,5.1,4.32,0,1.48-.73,3.08-2.89,4.1v.08c2.19.86,3.54,2.4,3.54,4.54,0,3.05-2.62,5.1-5.96,5.1-3.67,0-5.88-2.19-5.88-4.75Zm9.45-.11c0-2.13-1.48-3.16-3.86-3.83-2.05.59-3.16,1.94-3.16,3.62-.08,1.78,1.27,3.35,3.51,3.35s3.51-1.32,3.51-3.13Zm-6.53-8.77c0,1.75,1.32,2.7,3.35,3.24,1.51-.51,2.67-1.59,2.67-3.18,0-1.4-.84-2.86-2.97-2.86-1.97,0-3.05,1.3-3.05,2.81Z"/>
    <path class="cls-2" d="m73.15,484.6h-6.7l-.67,4.51c.4-.05.78-.11,1.43-.11,1.35,0,2.7.3,3.78.95,1.38.78,2.51,2.29,2.51,4.51,0,3.43-2.73,5.99-6.53,5.99-1.92,0-3.54-.54-4.37-1.08l.59-1.81c.73.43,2.16.97,3.75.97,2.24,0,4.16-1.46,4.16-3.81-.03-2.27-1.54-3.89-5.05-3.89-1,0-1.78.11-2.43.19l1.13-8.42h8.4v2Z"/>
    <path class="cls-2" d="m62.67,532.55v-1.46l1.86-1.81c4.48-4.26,6.51-6.53,6.53-9.18,0-1.78-.86-3.43-3.48-3.43-1.59,0-2.92.81-3.73,1.49l-.76-1.67c1.21-1.03,2.94-1.78,4.97-1.78,3.78,0,5.37,2.59,5.37,5.1,0,3.24-2.35,5.86-6.05,9.42l-1.4,1.3v.05h7.88v1.97h-11.2Z"/>
    <path class="cls-2" d="m63.24,562.22c.67.43,2.24,1.11,3.89,1.11,3.05,0,3.99-1.94,3.97-3.4-.03-2.46-2.24-3.51-4.53-3.51h-1.32v-1.78h1.32c1.73,0,3.91-.89,3.91-2.97,0-1.4-.89-2.65-3.08-2.65-1.4,0-2.75.62-3.51,1.16l-.62-1.73c.92-.67,2.7-1.35,4.59-1.35,3.46,0,5.02,2.05,5.02,4.18,0,1.81-1.08,3.35-3.24,4.13v.05c2.16.43,3.91,2.05,3.91,4.51,0,2.81-2.19,5.26-6.4,5.26-1.97,0-3.7-.62-4.56-1.19l.65-1.84Z"/>
    <path class="cls-2" d="m62.67,597.35v-1.46l1.86-1.81c4.48-4.26,6.51-6.53,6.53-9.18,0-1.78-.86-3.43-3.48-3.43-1.59,0-2.92.81-3.73,1.49l-.76-1.67c1.21-1.03,2.94-1.78,4.97-1.78,3.78,0,5.37,2.59,5.37,5.1,0,3.24-2.35,5.86-6.05,9.42l-1.4,1.3v.05h7.88v1.97h-11.2Z"/>
  </g>
  <g>
    <path class="cls-2" d="m20.48,438.62v-3.35l4.28-4.15c10.29-9.79,14.94-15,15-21.08,0-4.09-1.98-7.87-8-7.87-3.66,0-6.7,1.86-8.56,3.41l-1.74-3.84c2.79-2.36,6.76-4.09,11.41-4.09,8.68,0,12.34,5.95,12.34,11.72,0,7.44-5.39,13.45-13.89,21.64l-3.22,2.98v.12h18.1v4.53h-25.73Z"/>
    <path class="cls-2" d="m44.53,465.91h-15.38l-1.55,10.35c.93-.12,1.8-.25,3.29-.25,3.1,0,6.2.68,8.68,2.17,3.16,1.8,5.77,5.27,5.77,10.35,0,7.87-6.26,13.76-15,13.76-4.4,0-8.12-1.24-10.04-2.48l1.36-4.15c1.67.99,4.96,2.23,8.62,2.23,5.15,0,9.55-3.35,9.55-8.74-.06-5.21-3.53-8.93-11.59-8.93-2.29,0-4.09.25-5.58.43l2.6-19.34h19.28v4.59Z"/>
    <path class="cls-2" d="m21.78,558.36c1.55.99,5.15,2.54,8.93,2.54,7.01,0,9.18-4.46,9.11-7.81-.06-5.64-5.15-8.06-10.42-8.06h-3.04v-4.09h3.04c3.97,0,8.99-2.05,8.99-6.82,0-3.22-2.05-6.08-7.07-6.08-3.22,0-6.32,1.43-8.06,2.67l-1.43-3.97c2.11-1.55,6.2-3.1,10.54-3.1,7.94,0,11.53,4.71,11.53,9.61,0,4.15-2.48,7.69-7.44,9.49v.12c4.96.99,8.99,4.71,8.99,10.35,0,6.45-5.02,12.09-14.69,12.09-4.53,0-8.49-1.43-10.48-2.73l1.49-4.22Z"/>
    <path class="cls-2" d="m19.98,617.39c0-5.08,3.04-8.68,8-10.79l-.06-.19c-4.46-2.11-6.39-5.58-6.39-9.05,0-6.39,5.39-10.73,12.46-10.73,7.81,0,11.72,4.9,11.72,9.92,0,3.41-1.67,7.07-6.63,9.42v.19c5.02,1.98,8.12,5.52,8.12,10.42,0,7.01-6.01,11.72-13.7,11.72-8.43,0-13.51-5.02-13.51-10.91Zm21.7-.25c0-4.9-3.41-7.25-8.87-8.8-4.71,1.36-7.25,4.46-7.25,8.31-.19,4.09,2.91,7.69,8.06,7.69s8.06-3.04,8.06-7.19Zm-15-20.15c0,4.03,3.04,6.2,7.69,7.44,3.47-1.18,6.14-3.66,6.14-7.32,0-3.22-1.92-6.57-6.82-6.57-4.53,0-7.01,2.98-7.01,6.45Z"/>
  </g>
  <g>
    <path class="cls-2" d="m88.18,58.69c1.1.7,3.65,1.8,6.34,1.8,4.97,0,6.51-3.17,6.47-5.54-.04-4-3.65-5.72-7.39-5.72h-2.16v-2.9h2.16c2.82,0,6.38-1.45,6.38-4.84,0-2.29-1.45-4.31-5.02-4.31-2.29,0-4.49,1.01-5.72,1.89l-1.01-2.82c1.5-1.1,4.4-2.2,7.48-2.2,5.63,0,8.18,3.34,8.18,6.82,0,2.95-1.76,5.46-5.28,6.73v.09c3.52.7,6.38,3.34,6.38,7.35,0,4.58-3.56,8.58-10.43,8.58-3.21,0-6.03-1.01-7.44-1.94l1.06-2.99Z"/>
    <path class="cls-2" d="m87.26,118.13v-2.38l3.04-2.95c7.3-6.95,10.61-10.65,10.65-14.96,0-2.9-1.41-5.59-5.68-5.59-2.6,0-4.75,1.32-6.07,2.42l-1.23-2.73c1.98-1.67,4.8-2.9,8.1-2.9,6.16,0,8.76,4.22,8.76,8.32,0,5.28-3.83,9.55-9.86,15.36l-2.29,2.11v.09h12.85v3.21h-18.26Z"/>
    <path class="cls-2" d="m86.91,165.87c0-3.61,2.16-6.16,5.68-7.66l-.04-.13c-3.17-1.5-4.53-3.96-4.53-6.43,0-4.53,3.83-7.61,8.84-7.61,5.54,0,8.32,3.48,8.32,7.04,0,2.42-1.19,5.02-4.71,6.69v.13c3.56,1.41,5.77,3.92,5.77,7.39,0,4.97-4.27,8.32-9.73,8.32-5.99,0-9.59-3.56-9.59-7.75Zm15.4-.18c0-3.48-2.42-5.15-6.29-6.25-3.34.97-5.15,3.17-5.15,5.9-.13,2.9,2.07,5.46,5.72,5.46s5.72-2.16,5.72-5.11Zm-10.65-14.3c0,2.86,2.16,4.4,5.46,5.28,2.46-.84,4.36-2.6,4.36-5.19,0-2.29-1.36-4.66-4.84-4.66-3.21,0-4.97,2.11-4.97,4.58Z"/>
    <path class="cls-2" d="m95.66,203.14h-.09l-4.97,2.68-.75-2.95,6.25-3.34h3.3v28.6h-3.74v-25Z"/>
    <path class="cls-2" d="m104.33,257.79h-10.91l-1.1,7.35c.66-.09,1.28-.18,2.33-.18,2.2,0,4.4.48,6.16,1.54,2.24,1.28,4.09,3.74,4.09,7.35,0,5.59-4.45,9.77-10.65,9.77-3.12,0-5.77-.88-7.13-1.76l.97-2.95c1.19.7,3.52,1.58,6.12,1.58,3.65,0,6.78-2.38,6.78-6.21-.04-3.7-2.51-6.34-8.23-6.34-1.63,0-2.9.18-3.96.31l1.85-13.73h13.69v3.26Z"/>
    <path class="cls-2" d="m104.33,312.79h-10.91l-1.1,7.35c.66-.09,1.28-.18,2.33-.18,2.2,0,4.4.48,6.16,1.54,2.24,1.28,4.09,3.74,4.09,7.35,0,5.59-4.45,9.77-10.65,9.77-3.12,0-5.77-.88-7.13-1.76l.97-2.95c1.19.7,3.52,1.58,6.12,1.58,3.65,0,6.78-2.38,6.78-6.21-.04-3.7-2.51-6.34-8.23-6.34-1.63,0-2.9.18-3.96.31l1.85-13.73h13.69v3.26Z"/>
    <path class="cls-2" d="m88.18,388.69c1.1.7,3.65,1.8,6.34,1.8,4.97,0,6.51-3.17,6.47-5.54-.04-4-3.65-5.72-7.39-5.72h-2.16v-2.9h2.16c2.82,0,6.38-1.45,6.38-4.84,0-2.29-1.45-4.31-5.02-4.31-2.29,0-4.49,1.01-5.72,1.89l-1.01-2.82c1.5-1.1,4.4-2.2,7.48-2.2,5.63,0,8.18,3.34,8.18,6.82,0,2.95-1.76,5.46-5.28,6.73v.09c3.52.7,6.38,3.34,6.38,7.35,0,4.58-3.56,8.58-10.43,8.58-3.21,0-6.03-1.01-7.44-1.94l1.06-2.99Z"/>
    <path class="cls-2" d="m87.26,448.13v-2.38l3.04-2.95c7.3-6.95,10.61-10.65,10.65-14.96,0-2.9-1.41-5.59-5.68-5.59-2.6,0-4.75,1.32-6.07,2.42l-1.23-2.73c1.98-1.67,4.8-2.9,8.1-2.9,6.16,0,8.76,4.22,8.76,8.32,0,5.28-3.83,9.55-9.86,15.36l-2.29,2.11v.09h12.85v3.21h-18.26Z"/>
    <path class="cls-2" d="m86.91,495.87c0-3.61,2.16-6.16,5.68-7.66l-.04-.13c-3.17-1.5-4.53-3.96-4.53-6.43,0-4.53,3.83-7.61,8.84-7.61,5.54,0,8.32,3.48,8.32,7.04,0,2.42-1.19,5.02-4.71,6.69v.13c3.56,1.41,5.77,3.92,5.77,7.39,0,4.97-4.27,8.32-9.73,8.32-5.99,0-9.59-3.56-9.59-7.75Zm15.4-.18c0-3.48-2.42-5.15-6.29-6.25-3.34.97-5.15,3.17-5.15,5.9-.13,2.9,2.07,5.46,5.72,5.46s5.72-2.16,5.72-5.11Zm-10.65-14.3c0,2.86,2.16,4.4,5.46,5.28,2.46-.84,4.36-2.6,4.36-5.19,0-2.29-1.36-4.66-4.84-4.66-3.21,0-4.97,2.11-4.97,4.58Z"/>
    <path class="cls-2" d="m95.66,533.14h-.09l-4.97,2.68-.75-2.95,6.25-3.34h3.3v28.6h-3.74v-25Z"/>
    <path class="cls-2" d="m104.33,587.79h-10.91l-1.1,7.35c.66-.09,1.28-.18,2.33-.18,2.2,0,4.4.48,6.16,1.54,2.24,1.28,4.09,3.74,4.09,7.35,0,5.59-4.45,9.77-10.65,9.77-3.12,0-5.77-.88-7.13-1.76l.97-2.95c1.19.7,3.52,1.58,6.12,1.58,3.65,0,6.78-2.38,6.78-6.21-.04-3.7-2.51-6.34-8.23-6.34-1.63,0-2.9.18-3.96.31l1.85-13.73h13.69v3.26Z"/>
  </g>
  <g>
    <path class="cls-2" d="m155.81,29.97c1.55.99,5.15,2.54,8.93,2.54,7.01,0,9.18-4.46,9.11-7.81-.06-5.64-5.15-8.06-10.42-8.06h-3.04v-4.09h3.04c3.97,0,8.99-2.05,8.99-6.82,0-3.22-2.05-6.08-7.07-6.08-3.22,0-6.32,1.43-8.06,2.67l-1.43-3.97c2.11-1.55,6.2-3.1,10.54-3.1,7.94,0,11.53,4.71,11.53,9.61,0,4.15-2.48,7.69-7.44,9.49v.12c4.96.99,8.99,4.71,8.99,10.35,0,6.45-5.02,12.09-14.69,12.09-4.53,0-8.49-1.43-10.48-2.73l1.49-4.22Z"/>
    <path class="cls-2" d="m154.01,152.01c0-5.08,3.04-8.68,8-10.79l-.06-.19c-4.46-2.11-6.39-5.58-6.39-9.05,0-6.39,5.39-10.73,12.46-10.73,7.81,0,11.72,4.9,11.72,9.92,0,3.41-1.67,7.07-6.63,9.42v.19c5.02,1.98,8.12,5.52,8.12,10.42,0,7.01-6.01,11.72-13.7,11.72-8.43,0-13.52-5.02-13.52-10.91Zm21.7-.25c0-4.9-3.41-7.25-8.87-8.8-4.71,1.36-7.25,4.46-7.25,8.31-.19,4.09,2.91,7.69,8.06,7.69s8.06-3.04,8.06-7.19Zm-15-20.15c0,4.03,3.04,6.2,7.69,7.44,3.47-1.18,6.14-3.66,6.14-7.32,0-3.22-1.92-6.57-6.82-6.57-4.53,0-7.01,2.98-7.01,6.45Z"/>
    <path class="cls-2" d="m166.35,190.02h-.12l-7.01,3.78-1.05-4.15,8.8-4.71h4.65v40.3h-5.27v-35.21Z"/>
    <path class="cls-2" d="m178.57,252.53h-15.38l-1.55,10.35c.93-.12,1.8-.25,3.29-.25,3.1,0,6.2.68,8.68,2.17,3.16,1.8,5.77,5.27,5.77,10.35,0,7.87-6.26,13.76-15,13.76-4.4,0-8.12-1.24-10.04-2.48l1.36-4.15c1.67.99,4.96,2.23,8.62,2.23,5.15,0,9.55-3.35,9.55-8.74-.06-5.21-3.53-8.93-11.59-8.93-2.29,0-4.09.25-5.58.43l2.6-19.34h19.28v4.59Z"/>
    <path class="cls-2" d="m178.57,315.53h-15.38l-1.55,10.35c.93-.12,1.8-.25,3.29-.25,3.1,0,6.2.68,8.68,2.17,3.16,1.8,5.77,5.27,5.77,10.35,0,7.87-6.26,13.76-15,13.76-4.4,0-8.12-1.24-10.04-2.48l1.36-4.15c1.67.99,4.96,2.23,8.62,2.23,5.15,0,9.55-3.35,9.55-8.74-.06-5.21-3.53-8.93-11.59-8.93-2.29,0-4.09.25-5.58.43l2.6-19.34h19.28v4.59Z"/>
    <path class="cls-2" d="m155.81,407.97c1.55.99,5.15,2.54,8.93,2.54,7.01,0,9.18-4.46,9.11-7.81-.06-5.64-5.15-8.06-10.42-8.06h-3.04v-4.09h3.04c3.97,0,8.99-2.05,8.99-6.82,0-3.22-2.05-6.08-7.07-6.08-3.22,0-6.32,1.43-8.06,2.67l-1.43-3.97c2.11-1.55,6.2-3.1,10.54-3.1,7.94,0,11.53,4.71,11.53,9.61,0,4.15-2.48,7.69-7.44,9.49v.12c4.96.99,8.99,4.71,8.99,10.35,0,6.45-5.02,12.09-14.69,12.09-4.53,0-8.49-1.43-10.48-2.73l1.49-4.22Z"/>
    <path class="cls-2" d="m154.51,477.24v-3.35l4.28-4.15c10.29-9.79,14.94-15,15-21.08,0-4.09-1.98-7.87-8-7.87-3.66,0-6.7,1.86-8.56,3.41l-1.74-3.84c2.79-2.36,6.76-4.09,11.41-4.09,8.68,0,12.34,5.95,12.34,11.72,0,7.44-5.39,13.45-13.89,21.64l-3.22,2.98v.12h18.1v4.53h-25.73Z"/>
    <path class="cls-2" d="m154.01,530.01c0-5.08,3.04-8.68,8-10.79l-.06-.19c-4.46-2.11-6.39-5.58-6.39-9.05,0-6.39,5.39-10.73,12.46-10.73,7.81,0,11.72,4.9,11.72,9.92,0,3.41-1.67,7.07-6.63,9.42v.19c5.02,1.98,8.12,5.52,8.12,10.42,0,7.01-6.01,11.72-13.7,11.72-8.43,0-13.52-5.02-13.52-10.91Zm21.7-.25c0-4.9-3.41-7.25-8.87-8.8-4.71,1.36-7.25,4.46-7.25,8.31-.19,4.09,2.91,7.69,8.06,7.69s8.06-3.04,8.06-7.19Zm-15-20.15c0,4.03,3.04,6.2,7.69,7.44,3.47-1.18,6.14-3.66,6.14-7.32,0-3.22-1.92-6.57-6.82-6.57-4.53,0-7.01,2.98-7.01,6.45Z"/>
    <path class="cls-2" d="m166.35,568.02h-.12l-7.01,3.78-1.05-4.15,8.8-4.71h4.65v40.3h-5.27v-35.21Z"/>
  </g>
  <g>
    <path class="cls-2" d="m284.75,50.33v-2.38l3.04-2.95c7.31-6.95,10.61-10.65,10.65-14.96,0-2.9-1.41-5.59-5.68-5.59-2.6,0-4.75,1.32-6.07,2.42l-1.23-2.73c1.98-1.67,4.8-2.9,8.1-2.9,6.16,0,8.76,4.22,8.76,8.32,0,5.28-3.83,9.55-9.86,15.36l-2.29,2.11v.09h12.85v3.21h-18.26Z"/>
    <path class="cls-2" d="m284.4,98.07c0-3.61,2.16-6.16,5.68-7.66l-.04-.13c-3.17-1.5-4.53-3.96-4.53-6.43,0-4.53,3.83-7.61,8.84-7.61,5.54,0,8.32,3.48,8.32,7.04,0,2.42-1.19,5.02-4.71,6.69v.13c3.56,1.41,5.77,3.92,5.77,7.39,0,4.97-4.27,8.32-9.73,8.32-5.98,0-9.59-3.56-9.59-7.75Zm15.4-.18c0-3.48-2.42-5.15-6.29-6.25-3.34.97-5.15,3.17-5.15,5.9-.13,2.9,2.07,5.46,5.72,5.46s5.72-2.16,5.72-5.11Zm-10.65-14.3c0,2.86,2.16,4.4,5.46,5.28,2.46-.84,4.36-2.6,4.36-5.19,0-2.29-1.36-4.66-4.84-4.66-3.21,0-4.97,2.11-4.97,4.58Z"/>
    <path class="cls-2" d="m293.15,135.33h-.09l-4.97,2.68-.75-2.95,6.25-3.34h3.3v28.6h-3.74v-25Z"/>
    <path class="cls-2" d="m301.82,189.98h-10.91l-1.1,7.35c.66-.09,1.28-.18,2.33-.18,2.2,0,4.4.48,6.16,1.54,2.24,1.28,4.09,3.74,4.09,7.35,0,5.59-4.45,9.77-10.65,9.77-3.12,0-5.76-.88-7.13-1.76l.97-2.95c1.19.7,3.52,1.58,6.12,1.58,3.65,0,6.78-2.38,6.78-6.21-.04-3.7-2.51-6.34-8.23-6.34-1.63,0-2.9.18-3.96.31l1.85-13.73h13.69v3.26Z"/>
    <path class="cls-2" d="m301.82,244.98h-10.91l-1.1,7.35c.66-.09,1.28-.18,2.33-.18,2.2,0,4.4.48,6.16,1.54,2.24,1.28,4.09,3.74,4.09,7.35,0,5.59-4.45,9.77-10.65,9.77-3.12,0-5.76-.88-7.13-1.76l.97-2.95c1.19.7,3.52,1.58,6.12,1.58,3.65,0,6.78-2.38,6.78-6.21-.04-3.7-2.51-6.34-8.23-6.34-1.63,0-2.9.18-3.96.31l1.85-13.73h13.69v3.26Z"/>
    <path class="cls-2" d="m285.67,320.88c1.1.7,3.65,1.8,6.34,1.8,4.97,0,6.51-3.17,6.47-5.54-.04-4-3.65-5.72-7.39-5.72h-2.16v-2.9h2.16c2.82,0,6.38-1.45,6.38-4.84,0-2.29-1.45-4.31-5.02-4.31-2.29,0-4.49,1.01-5.72,1.89l-1.01-2.82c1.5-1.1,4.4-2.2,7.48-2.2,5.63,0,8.18,3.34,8.18,6.82,0,2.95-1.76,5.46-5.28,6.73v.09c3.52.7,6.38,3.34,6.38,7.35,0,4.58-3.56,8.58-10.43,8.58-3.21,0-6.03-1.01-7.44-1.94l1.06-2.99Z"/>
    <path class="cls-2" d="m284.75,380.33v-2.38l3.04-2.95c7.31-6.95,10.61-10.65,10.65-14.96,0-2.9-1.41-5.59-5.68-5.59-2.6,0-4.75,1.32-6.07,2.42l-1.23-2.73c1.98-1.67,4.8-2.9,8.1-2.9,6.16,0,8.76,4.22,8.76,8.32,0,5.28-3.83,9.55-9.86,15.36l-2.29,2.11v.09h12.85v3.21h-18.26Z"/>
    <path class="cls-2" d="m284.4,428.07c0-3.61,2.16-6.16,5.68-7.66l-.04-.13c-3.17-1.5-4.53-3.96-4.53-6.43,0-4.53,3.83-7.61,8.84-7.61,5.54,0,8.32,3.48,8.32,7.04,0,2.42-1.19,5.02-4.71,6.69v.13c3.56,1.41,5.77,3.92,5.77,7.39,0,4.97-4.27,8.32-9.73,8.32-5.98,0-9.59-3.56-9.59-7.75Zm15.4-.18c0-3.48-2.42-5.15-6.29-6.25-3.34.97-5.15,3.17-5.15,5.9-.13,2.9,2.07,5.46,5.72,5.46s5.72-2.16,5.72-5.11Zm-10.65-14.3c0,2.86,2.16,4.4,5.46,5.28,2.46-.84,4.36-2.6,4.36-5.19,0-2.29-1.36-4.66-4.84-4.66-3.21,0-4.97,2.11-4.97,4.58Z"/>
    <path class="cls-2" d="m293.15,465.33h-.09l-4.97,2.68-.75-2.95,6.25-3.34h3.3v28.6h-3.74v-25Z"/>
    <path class="cls-2" d="m301.82,519.98h-10.91l-1.1,7.35c.66-.09,1.28-.18,2.33-.18,2.2,0,4.4.48,6.16,1.54,2.24,1.28,4.09,3.74,4.09,7.35,0,5.59-4.45,9.77-10.65,9.77-3.12,0-5.76-.88-7.13-1.76l.97-2.95c1.19.7,3.52,1.58,6.12,1.58,3.65,0,6.78-2.38,6.78-6.21-.04-3.7-2.51-6.34-8.23-6.34-1.63,0-2.9.18-3.96.31l1.85-13.73h13.69v3.26Z"/>
    <path class="cls-2" d="m286.62,595.39c.98.62,3.24,1.6,5.62,1.6,4.41,0,5.77-2.81,5.73-4.91-.04-3.55-3.24-5.07-6.55-5.07h-1.91v-2.57h1.91c2.5,0,5.66-1.29,5.66-4.29,0-2.03-1.29-3.82-4.45-3.82-2.03,0-3.98.9-5.07,1.68l-.9-2.5c1.33-.97,3.9-1.95,6.63-1.95,4.99,0,7.25,2.96,7.25,6.05,0,2.61-1.56,4.84-4.68,5.97v.08c3.12.62,5.65,2.96,5.65,6.51,0,4.06-3.16,7.61-9.24,7.61-2.85,0-5.34-.9-6.59-1.72l.94-2.65Z"/>
  </g>
  <g>
    <path class="cls-2" d="m349.19-2.89h-.12l-7.01,3.78-1.05-4.15,8.8-4.71h4.65v40.3h-5.27V-2.89Z"/>
    <path class="cls-2" d="m336.86,85.09c0-5.08,3.04-8.68,8-10.79l-.06-.19c-4.46-2.11-6.39-5.58-6.39-9.05,0-6.39,5.39-10.73,12.46-10.73,7.81,0,11.72,4.9,11.72,9.92,0,3.41-1.67,7.07-6.63,9.42v.19c5.02,1.98,8.12,5.52,8.12,10.42,0,7.01-6.01,11.72-13.7,11.72-8.43,0-13.51-5.02-13.51-10.91Zm21.7-.25c0-4.9-3.41-7.25-8.87-8.8-4.71,1.36-7.25,4.46-7.25,8.31-.19,4.09,2.91,7.69,8.06,7.69s8.06-3.04,8.06-7.19Zm-15-20.15c0,4.03,3.04,6.2,7.69,7.44,3.47-1.18,6.14-3.66,6.14-7.32,0-3.22-1.92-6.57-6.82-6.57-4.53,0-7.01,2.98-7.01,6.45Z"/>
    <path class="cls-2" d="m349.19,123.11h-.12l-7.01,3.78-1.05-4.15,8.8-4.71h4.65v40.3h-5.27v-35.21Z"/>
    <path class="cls-2" d="m361.4,185.61h-15.38l-1.55,10.35c.93-.12,1.8-.25,3.29-.25,3.1,0,6.2.68,8.68,2.17,3.16,1.8,5.77,5.27,5.77,10.35,0,7.87-6.26,13.76-15,13.76-4.4,0-8.12-1.24-10.04-2.48l1.36-4.15c1.67.99,4.96,2.23,8.62,2.23,5.15,0,9.55-3.35,9.55-8.74-.06-5.21-3.53-8.93-11.59-8.93-2.29,0-4.09.25-5.58.43l2.6-19.34h19.28v4.59Z"/>
    <path class="cls-2" d="m338.65,341.06c1.55.99,5.15,2.54,8.93,2.54,7.01,0,9.18-4.46,9.11-7.81-.06-5.64-5.15-8.06-10.42-8.06h-3.04v-4.09h3.04c3.97,0,8.99-2.05,8.99-6.82,0-3.22-2.05-6.08-7.07-6.08-3.22,0-6.32,1.43-8.06,2.67l-1.43-3.97c2.11-1.55,6.2-3.1,10.54-3.1,7.94,0,11.53,4.71,11.53,9.61,0,4.15-2.48,7.69-7.44,9.49v.12c4.96.99,8.99,4.71,8.99,10.35,0,6.45-5.02,12.09-14.69,12.09-4.53,0-8.49-1.43-10.48-2.73l1.49-4.22Z"/>
    <path class="cls-2" d="m337.35,410.32v-3.35l4.28-4.15c10.29-9.79,14.94-15,15-21.08,0-4.09-1.98-7.87-8-7.87-3.66,0-6.7,1.86-8.56,3.41l-1.74-3.84c2.79-2.36,6.76-4.09,11.41-4.09,8.68,0,12.34,5.95,12.34,11.72,0,7.44-5.39,13.45-13.89,21.64l-3.22,2.98v.12h18.1v4.53h-25.73Z"/>
    <path class="cls-2" d="m336.86,463.09c0-5.08,3.04-8.68,8-10.79l-.06-.19c-4.46-2.11-6.39-5.58-6.39-9.05,0-6.39,5.39-10.73,12.46-10.73,7.81,0,11.72,4.9,11.72,9.92,0,3.41-1.67,7.07-6.63,9.42v.19c5.02,1.98,8.12,5.52,8.12,10.42,0,7.01-6.01,11.72-13.7,11.72-8.43,0-13.51-5.02-13.51-10.91Zm21.7-.25c0-4.9-3.41-7.25-8.87-8.8-4.71,1.36-7.25,4.46-7.25,8.31-.19,4.09,2.91,7.69,8.06,7.69s8.06-3.04,8.06-7.19Zm-15-20.15c0,4.03,3.04,6.2,7.69,7.44,3.47-1.18,6.14-3.66,6.14-7.32,0-3.22-1.92-6.57-6.82-6.57-4.53,0-7.01,2.98-7.01,6.45Z"/>
    <path class="cls-2" d="m337.35,536.32v-3.35l4.28-4.15c10.29-9.79,14.94-15,15-21.08,0-4.09-1.98-7.87-8-7.87-3.66,0-6.7,1.86-8.56,3.41l-1.74-3.84c2.79-2.36,6.76-4.09,11.41-4.09,8.68,0,12.34,5.95,12.34,11.72,0,7.44-5.39,13.45-13.89,21.64l-3.22,2.98v.12h18.1v4.53h-25.73Z"/>
    <path class="cls-2" d="m338.65,593.06c1.55.99,5.15,2.54,8.93,2.54,7.01,0,9.18-4.46,9.11-7.81-.06-5.64-5.15-8.06-10.42-8.06h-3.04v-4.09h3.04c3.97,0,8.99-2.05,8.99-6.82,0-3.22-2.05-6.08-7.07-6.08-3.22,0-6.32,1.43-8.06,2.67l-1.43-3.97c2.11-1.55,6.2-3.1,10.54-3.1,7.94,0,11.53,4.71,11.53,9.61,0,4.15-2.48,7.69-7.44,9.49v.12c4.96.99,8.99,4.71,8.99,10.35,0,6.45-5.02,12.09-14.69,12.09-4.53,0-8.49-1.43-10.48-2.73l1.49-4.22Z"/>
  </g>
  <g>
    <path class="cls-2" d="m257.04,25.92c.68.43,2.24,1.11,3.89,1.11,3.05,0,4-1.94,3.97-3.4-.03-2.46-2.24-3.51-4.54-3.51h-1.32v-1.78h1.32c1.73,0,3.91-.89,3.91-2.97,0-1.4-.89-2.65-3.08-2.65-1.4,0-2.75.62-3.51,1.16l-.62-1.73c.92-.67,2.7-1.35,4.59-1.35,3.46,0,5.02,2.05,5.02,4.18,0,1.81-1.08,3.35-3.24,4.13v.05c2.16.43,3.91,2.05,3.91,4.51,0,2.81-2.19,5.26-6.4,5.26-1.97,0-3.7-.62-4.56-1.19l.65-1.84Z"/>
    <path class="cls-2" d="m266.95,45.5h-6.69l-.68,4.51c.41-.05.78-.11,1.43-.11,1.35,0,2.7.3,3.78.95,1.38.78,2.51,2.29,2.51,4.51,0,3.43-2.73,5.99-6.53,5.99-1.92,0-3.54-.54-4.37-1.08l.59-1.81c.73.43,2.16.97,3.75.97,2.24,0,4.16-1.46,4.16-3.81-.03-2.27-1.54-3.89-5.05-3.89-1,0-1.78.11-2.43.19l1.13-8.42h8.39v2Z"/>
    <path class="cls-2" d="m256.26,89c0-2.21,1.32-3.78,3.48-4.7l-.03-.08c-1.94-.92-2.78-2.43-2.78-3.94,0-2.78,2.35-4.67,5.43-4.67,3.4,0,5.1,2.13,5.1,4.32,0,1.48-.73,3.08-2.89,4.1v.08c2.19.86,3.54,2.4,3.54,4.54,0,3.05-2.62,5.1-5.97,5.1-3.67,0-5.88-2.19-5.88-4.75Zm9.45-.11c0-2.13-1.49-3.16-3.86-3.83-2.05.59-3.16,1.94-3.16,3.62-.08,1.78,1.27,3.35,3.51,3.35s3.51-1.32,3.51-3.13Zm-6.53-8.77c0,1.75,1.32,2.7,3.35,3.24,1.51-.51,2.67-1.59,2.67-3.18,0-1.4-.84-2.86-2.97-2.86-1.97,0-3.05,1.3-3.05,2.81Z"/>
    <path class="cls-2" d="m266.95,110.3h-6.69l-.68,4.51c.41-.05.78-.11,1.43-.11,1.35,0,2.7.3,3.78.95,1.38.78,2.51,2.29,2.51,4.51,0,3.43-2.73,5.99-6.53,5.99-1.92,0-3.54-.54-4.37-1.08l.59-1.81c.73.43,2.16.97,3.75.97,2.24,0,4.16-1.46,4.16-3.81-.03-2.27-1.54-3.89-5.05-3.89-1,0-1.78.11-2.43.19l1.13-8.42h8.39v2Z"/>
    <path class="cls-2" d="m256.48,158.25v-1.46l1.86-1.81c4.48-4.26,6.5-6.53,6.53-9.18,0-1.78-.86-3.43-3.48-3.43-1.59,0-2.92.81-3.72,1.49l-.76-1.67c1.21-1.03,2.94-1.78,4.97-1.78,3.78,0,5.37,2.59,5.37,5.1,0,3.24-2.35,5.86-6.05,9.42l-1.4,1.3v.05h7.88v1.97h-11.2Z"/>
    <path class="cls-2" d="m257.04,187.92c.68.43,2.24,1.11,3.89,1.11,3.05,0,4-1.94,3.97-3.4-.03-2.46-2.24-3.51-4.54-3.51h-1.32v-1.78h1.32c1.73,0,3.91-.89,3.91-2.97,0-1.4-.89-2.65-3.08-2.65-1.4,0-2.75.62-3.51,1.16l-.62-1.73c.92-.67,2.7-1.35,4.59-1.35,3.46,0,5.02,2.05,5.02,4.18,0,1.81-1.08,3.35-3.24,4.13v.05c2.16.43,3.91,2.05,3.91,4.51,0,2.81-2.19,5.26-6.4,5.26-1.97,0-3.7-.62-4.56-1.19l.65-1.84Z"/>
    <path class="cls-2" d="m256.48,223.05v-1.46l1.86-1.81c4.48-4.26,6.5-6.53,6.53-9.18,0-1.78-.86-3.43-3.48-3.43-1.59,0-2.92.81-3.72,1.49l-.76-1.67c1.21-1.03,2.94-1.78,4.97-1.78,3.78,0,5.37,2.59,5.37,5.1,0,3.24-2.35,5.86-6.05,9.42l-1.4,1.3v.05h7.88v1.97h-11.2Z"/>
  </g>
  <g>
    <polygon class="cls-2" points="43.13 368.3 38.16 361.17 34.53 361.17 34.53 364.77 43.24 377.35 48.44 377.35 48.44 339.72 43.13 339.72 43.13 368.3"/>
    <polygon class="cls-2" points="23.32 339.72 18.12 339.72 18.12 377.35 23.43 377.35 23.43 348.76 28.41 355.89 32.04 355.89 32.03 352.29 23.32 339.72"/>
  </g>
  <g>
    <polygon class="cls-2" points="177.94 90.22 172.73 82.83 168.93 82.83 168.93 86.56 178.06 99.59 183.51 99.59 183.51 60.6 177.94 60.6 177.94 90.22"/>
    <polygon class="cls-2" points="157.19 60.6 151.73 60.6 151.73 99.59 157.31 99.59 157.31 69.97 162.52 77.36 166.32 77.36 166.32 73.63 157.19 60.6"/>
  </g>
  <g class="cls-7">
    <g>
      <path class="cls-2" d="m205.41,25.75v-1.46l1.86-1.81c4.48-4.26,6.51-6.53,6.53-9.18,0-1.78-.86-3.43-3.48-3.43-1.59,0-2.92.81-3.73,1.49l-.76-1.67c1.21-1.03,2.94-1.78,4.97-1.78,3.78,0,5.37,2.59,5.37,5.1,0,3.24-2.35,5.86-6.05,9.42l-1.4,1.3v.05h7.88v1.97h-11.2Z"/>
      <path class="cls-2" d="m205.98,55.42c.67.43,2.24,1.11,3.89,1.11,3.05,0,4-1.94,3.97-3.4-.03-2.46-2.24-3.51-4.54-3.51h-1.32v-1.78h1.32c1.73,0,3.91-.89,3.91-2.97,0-1.4-.89-2.65-3.08-2.65-1.4,0-2.75.62-3.51,1.16l-.62-1.73c.92-.67,2.7-1.35,4.59-1.35,3.46,0,5.02,2.05,5.02,4.18,0,1.81-1.08,3.35-3.24,4.13v.05c2.16.43,3.91,2.05,3.91,4.51,0,2.81-2.19,5.26-6.4,5.26-1.97,0-3.7-.62-4.56-1.19l.65-1.84Z"/>
      <path class="cls-2" d="m215.89,75h-6.69l-.67,4.51c.4-.05.78-.11,1.43-.11,1.35,0,2.7.3,3.78.95,1.38.78,2.51,2.29,2.51,4.51,0,3.43-2.73,5.99-6.53,5.99-1.92,0-3.54-.54-4.37-1.08l.59-1.81c.73.43,2.16.97,3.75.97,2.24,0,4.16-1.46,4.16-3.81-.03-2.27-1.54-3.89-5.05-3.89-1,0-1.78.11-2.43.19l1.13-8.42h8.4v2Z"/>
      <path class="cls-2" d="m205.2,118.49c0-2.21,1.32-3.78,3.48-4.7l-.03-.08c-1.94-.92-2.78-2.43-2.78-3.94,0-2.78,2.35-4.67,5.43-4.67,3.4,0,5.1,2.13,5.1,4.32,0,1.48-.73,3.08-2.89,4.1v.08c2.19.86,3.54,2.4,3.54,4.54,0,3.05-2.62,5.1-5.96,5.1-3.67,0-5.88-2.19-5.88-4.75Zm9.45-.11c0-2.13-1.48-3.16-3.86-3.83-2.05.59-3.16,1.94-3.16,3.62-.08,1.78,1.27,3.35,3.51,3.35s3.51-1.32,3.51-3.13Zm-6.53-8.77c0,1.75,1.32,2.7,3.35,3.24,1.51-.51,2.67-1.59,2.67-3.18,0-1.4-.84-2.86-2.97-2.86-1.97,0-3.05,1.3-3.05,2.81Z"/>
      <path class="cls-2" d="m215.89,139.8h-6.69l-.67,4.51c.4-.05.78-.11,1.43-.11,1.35,0,2.7.3,3.78.95,1.38.78,2.51,2.29,2.51,4.51,0,3.43-2.73,5.99-6.53,5.99-1.92,0-3.54-.54-4.37-1.08l.59-1.81c.73.43,2.16.97,3.75.97,2.24,0,4.16-1.46,4.16-3.81-.03-2.27-1.54-3.89-5.05-3.89-1,0-1.78.11-2.43.19l1.13-8.42h8.4v2Z"/>
      <path class="cls-2" d="m205.41,187.75v-1.46l1.86-1.81c4.48-4.26,6.51-6.53,6.53-9.18,0-1.78-.86-3.43-3.48-3.43-1.59,0-2.92.81-3.73,1.49l-.76-1.67c1.21-1.03,2.94-1.78,4.97-1.78,3.78,0,5.37,2.59,5.37,5.1,0,3.24-2.35,5.86-6.05,9.42l-1.4,1.3v.05h7.88v1.97h-11.2Z"/>
      <path class="cls-2" d="m205.98,217.42c.67.43,2.24,1.11,3.89,1.11,3.05,0,4-1.94,3.97-3.4-.03-2.46-2.24-3.51-4.54-3.51h-1.32v-1.78h1.32c1.73,0,3.91-.89,3.91-2.97,0-1.4-.89-2.65-3.08-2.65-1.4,0-2.75.62-3.51,1.16l-.62-1.73c.92-.67,2.7-1.35,4.59-1.35,3.46,0,5.02,2.05,5.02,4.18,0,1.81-1.08,3.35-3.24,4.13v.05c2.16.43,3.91,2.05,3.91,4.51,0,2.81-2.19,5.26-6.4,5.26-1.97,0-3.7-.62-4.56-1.19l.65-1.84Z"/>
      <path class="cls-2" d="m205.41,252.55v-1.46l1.86-1.81c4.48-4.26,6.51-6.53,6.53-9.18,0-1.78-.86-3.43-3.48-3.43-1.59,0-2.92.81-3.73,1.49l-.76-1.67c1.21-1.03,2.94-1.78,4.97-1.78,3.78,0,5.37,2.59,5.37,5.1,0,3.24-2.35,5.86-6.05,9.42l-1.4,1.3v.05h7.88v1.97h-11.2Z"/>
    </g>
  </g>
  <g class="cls-7">
    <g>
      <path class="cls-2" d="m2.3,27.37v-1.46l1.86-1.81c4.48-4.26,6.51-6.53,6.53-9.18,0-1.78-.86-3.43-3.48-3.43-1.59,0-2.92.81-3.73,1.49l-.76-1.67c1.21-1.03,2.94-1.78,4.97-1.78,3.78,0,5.37,2.59,5.37,5.1,0,3.24-2.35,5.86-6.05,9.42l-1.4,1.3v.05h7.88v1.97H2.3Z"/>
      <path class="cls-2" d="m2.86,57.04c.67.43,2.24,1.11,3.89,1.11,3.05,0,4-1.94,3.97-3.4-.03-2.46-2.24-3.51-4.54-3.51h-1.32v-1.78h1.32c1.73,0,3.91-.89,3.91-2.97,0-1.4-.89-2.65-3.08-2.65-1.4,0-2.75.62-3.51,1.16l-.62-1.73c.92-.67,2.7-1.35,4.59-1.35,3.46,0,5.02,2.05,5.02,4.18,0,1.81-1.08,3.35-3.24,4.13v.05c2.16.43,3.91,2.05,3.91,4.51,0,2.81-2.19,5.26-6.4,5.26-1.97,0-3.7-.62-4.56-1.19l.65-1.84Z"/>
      <path class="cls-2" d="m12.77,76.62h-6.69l-.67,4.51c.4-.05.78-.11,1.43-.11,1.35,0,2.7.3,3.78.95,1.38.78,2.51,2.29,2.51,4.51,0,3.43-2.73,5.99-6.53,5.99-1.92,0-3.54-.54-4.37-1.08l.59-1.81c.73.43,2.16.97,3.75.97,2.24,0,4.16-1.46,4.16-3.81-.03-2.27-1.54-3.89-5.05-3.89-1,0-1.78.11-2.43.19l1.13-8.42h8.4v2Z"/>
      <path class="cls-2" d="m2.08,120.11c0-2.21,1.32-3.78,3.48-4.7l-.03-.08c-1.94-.92-2.78-2.43-2.78-3.94,0-2.78,2.35-4.67,5.43-4.67,3.4,0,5.1,2.13,5.1,4.32,0,1.48-.73,3.08-2.89,4.1v.08c2.19.86,3.54,2.4,3.54,4.54,0,3.05-2.62,5.1-5.96,5.1-3.67,0-5.88-2.19-5.88-4.75Zm9.45-.11c0-2.13-1.48-3.16-3.86-3.83-2.05.59-3.16,1.94-3.16,3.62-.08,1.78,1.27,3.35,3.51,3.35s3.51-1.32,3.51-3.13Zm-6.53-8.77c0,1.75,1.32,2.7,3.35,3.24,1.51-.51,2.67-1.59,2.67-3.18,0-1.4-.84-2.86-2.97-2.86-1.97,0-3.05,1.3-3.05,2.81Z"/>
      <path class="cls-2" d="m12.77,141.42h-6.69l-.67,4.51c.4-.05.78-.11,1.43-.11,1.35,0,2.7.3,3.78.95,1.38.78,2.51,2.29,2.51,4.51,0,3.43-2.73,5.99-6.53,5.99-1.92,0-3.54-.54-4.37-1.08l.59-1.81c.73.43,2.16.97,3.75.97,2.24,0,4.16-1.46,4.16-3.81-.03-2.27-1.54-3.89-5.05-3.89-1,0-1.78.11-2.43.19l1.13-8.42h8.4v2Z"/>
      <path class="cls-2" d="m2.3,189.37v-1.46l1.86-1.81c4.48-4.26,6.51-6.53,6.53-9.18,0-1.78-.86-3.43-3.48-3.43-1.59,0-2.92.81-3.73,1.49l-.76-1.67c1.21-1.03,2.94-1.78,4.97-1.78,3.78,0,5.37,2.59,5.37,5.1,0,3.24-2.35,5.86-6.05,9.42l-1.4,1.3v.05h7.88v1.97H2.3Z"/>
      <path class="cls-2" d="m2.86,219.04c.67.43,2.24,1.11,3.89,1.11,3.05,0,4-1.94,3.97-3.4-.03-2.46-2.24-3.51-4.54-3.51h-1.32v-1.78h1.32c1.73,0,3.91-.89,3.91-2.97,0-1.4-.89-2.65-3.08-2.65-1.4,0-2.75.62-3.51,1.16l-.62-1.73c.92-.67,2.7-1.35,4.59-1.35,3.46,0,5.02,2.05,5.02,4.18,0,1.81-1.08,3.35-3.24,4.13v.05c2.16.43,3.91,2.05,3.91,4.51,0,2.81-2.19,5.26-6.4,5.26-1.97,0-3.7-.62-4.56-1.19l.65-1.84Z"/>
      <path class="cls-2" d="m2.3,254.17v-1.46l1.86-1.81c4.48-4.26,6.51-6.53,6.53-9.18,0-1.78-.86-3.43-3.48-3.43-1.59,0-2.92.81-3.73,1.49l-.76-1.67c1.21-1.03,2.94-1.78,4.97-1.78,3.78,0,5.37,2.59,5.37,5.1,0,3.24-2.35,5.86-6.05,9.42l-1.4,1.3v.05h7.88v1.97H2.3Z"/>
    </g>
  </g>
  <g class="cls-8">
    <g>
      <path class="cls-2" d="m175.03-2.01h-.04l-2.37,1.28-.36-1.41,2.98-1.6h1.58v13.65h-1.79V-2.01Z"/>
      <path class="cls-2" d="m171.02,35.11v-1.13l1.45-1.41c3.49-3.32,5.06-5.08,5.08-7.14,0-1.38-.67-2.67-2.71-2.67-1.24,0-2.27.63-2.9,1.15l-.59-1.3c.94-.8,2.29-1.39,3.86-1.39,2.94,0,4.18,2.02,4.18,3.97,0,2.52-1.83,4.56-4.7,7.33l-1.09,1.01v.04h6.13v1.53h-8.71Z"/>
      <path class="cls-2" d="m171.46,58.19c.53.34,1.74.86,3.02.86,2.37,0,3.11-1.51,3.09-2.65-.02-1.91-1.74-2.73-3.53-2.73h-1.03v-1.39h1.03c1.34,0,3.04-.69,3.04-2.31,0-1.09-.69-2.06-2.39-2.06-1.09,0-2.14.48-2.73.9l-.48-1.34c.71-.52,2.1-1.05,3.57-1.05,2.69,0,3.91,1.6,3.91,3.25,0,1.41-.84,2.6-2.52,3.21v.04c1.68.34,3.04,1.6,3.04,3.51,0,2.18-1.7,4.09-4.98,4.09-1.53,0-2.88-.48-3.55-.92l.5-1.43Z"/>
      <path class="cls-2" d="m179.17,73.42h-5.21l-.53,3.51c.32-.04.61-.08,1.11-.08,1.05,0,2.1.23,2.94.74,1.07.61,1.95,1.78,1.95,3.51,0,2.67-2.12,4.66-5.08,4.66-1.49,0-2.75-.42-3.4-.84l.46-1.41c.57.34,1.68.76,2.92.76,1.74,0,3.23-1.13,3.23-2.96-.02-1.76-1.2-3.02-3.93-3.02-.78,0-1.39.08-1.89.15l.88-6.55h6.53v1.55Z"/>
      <path class="cls-2" d="m170.85,107.25c0-1.72,1.03-2.94,2.71-3.65l-.02-.06c-1.51-.71-2.16-1.89-2.16-3.07,0-2.16,1.83-3.63,4.22-3.63,2.65,0,3.97,1.66,3.97,3.36,0,1.15-.57,2.39-2.25,3.19v.06c1.7.67,2.75,1.87,2.75,3.53,0,2.37-2.04,3.97-4.64,3.97-2.86,0-4.58-1.7-4.58-3.7Zm7.35-.08c0-1.66-1.16-2.46-3-2.98-1.6.46-2.46,1.51-2.46,2.81-.06,1.38.99,2.6,2.73,2.6s2.73-1.03,2.73-2.44Zm-5.08-6.82c0,1.37,1.03,2.1,2.6,2.52,1.18-.4,2.08-1.24,2.08-2.48,0-1.09-.65-2.23-2.31-2.23-1.53,0-2.37,1.01-2.37,2.18Z"/>
      <path class="cls-2" d="m175.03,149.19h-.04l-2.37,1.28-.36-1.41,2.98-1.6h1.58v13.65h-1.79v-11.93Z"/>
      <path class="cls-2" d="m175.03,174.39h-.04l-2.37,1.28-.36-1.41,2.98-1.6h1.58v13.65h-1.79v-11.93Z"/>
      <path class="cls-2" d="m171.46,209.39c.53.34,1.74.86,3.02.86,2.37,0,3.11-1.51,3.09-2.65-.02-1.91-1.74-2.73-3.53-2.73h-1.03v-1.39h1.03c1.34,0,3.04-.69,3.04-2.31,0-1.09-.69-2.06-2.39-2.06-1.09,0-2.14.48-2.73.9l-.48-1.34c.71-.53,2.1-1.05,3.57-1.05,2.69,0,3.91,1.6,3.91,3.25,0,1.41-.84,2.6-2.52,3.21v.04c1.68.34,3.04,1.6,3.04,3.51,0,2.18-1.7,4.09-4.98,4.09-1.53,0-2.88-.48-3.55-.92l.5-1.43Z"/>
      <path class="cls-2" d="m170.85,233.25c0-1.72,1.03-2.94,2.71-3.65l-.02-.06c-1.51-.71-2.16-1.89-2.16-3.07,0-2.16,1.83-3.63,4.22-3.63,2.65,0,3.97,1.66,3.97,3.36,0,1.15-.57,2.39-2.25,3.19v.06c1.7.67,2.75,1.87,2.75,3.53,0,2.37-2.04,3.97-4.64,3.97-2.86,0-4.58-1.7-4.58-3.7Zm7.35-.08c0-1.66-1.16-2.46-3-2.98-1.6.46-2.46,1.51-2.46,2.81-.06,1.38.99,2.6,2.73,2.6s2.73-1.03,2.73-2.44Zm-5.08-6.82c0,1.37,1.03,2.1,2.6,2.52,1.18-.4,2.08-1.24,2.08-2.48,0-1.09-.65-2.23-2.31-2.23-1.53,0-2.37,1.01-2.37,2.18Z"/>
    </g>
    <g>
      <polygon class="cls-2" points="178.68 133.06 177.05 130.73 175.87 130.73 175.87 131.91 178.71 136.02 180.41 136.02 180.41 123.73 178.68 123.73 178.68 133.06"/>
      <polygon class="cls-2" points="172.21 123.73 170.51 123.73 170.51 136.02 172.25 136.02 172.25 126.68 173.87 129.01 175.06 129.01 175.06 127.83 172.21 123.73"/>
    </g>
  </g>
  <g class="cls-3">
    <g>
      <path class="cls-2" d="m321.55,59.1v-3.35l4.28-4.15c10.29-9.79,14.94-15,15-21.08,0-4.09-1.98-7.87-8-7.87-3.66,0-6.7,1.86-8.56,3.41l-1.74-3.84c2.79-2.36,6.76-4.09,11.41-4.09,8.68,0,12.34,5.95,12.34,11.72,0,7.44-5.39,13.45-13.89,21.64l-3.22,2.98v.12h18.1v4.53h-25.73Z"/>
      <path class="cls-2" d="m321.06,111.87c0-5.08,3.04-8.68,8-10.79l-.06-.19c-4.46-2.11-6.39-5.58-6.39-9.05,0-6.39,5.39-10.73,12.46-10.73,7.81,0,11.72,4.9,11.72,9.92,0,3.41-1.67,7.07-6.63,9.42v.19c5.02,1.98,8.12,5.52,8.12,10.42,0,7.01-6.01,11.72-13.7,11.72-8.43,0-13.51-5.02-13.51-10.91Zm21.7-.25c0-4.9-3.41-7.25-8.87-8.8-4.71,1.36-7.25,4.46-7.25,8.31-.19,4.09,2.91,7.69,8.06,7.69s8.06-3.04,8.06-7.19Zm-15-20.15c0,4.03,3.04,6.2,7.69,7.44,3.47-1.18,6.14-3.66,6.14-7.32,0-3.22-1.92-6.57-6.82-6.57-4.53,0-7.01,2.98-7.01,6.45Z"/>
      <path class="cls-2" d="m333.39,149.88h-.12l-7.01,3.78-1.05-4.15,8.8-4.71h4.65v40.3h-5.27v-35.21Z"/>
      <path class="cls-2" d="m345.61,275.39h-15.38l-1.55,10.35c.93-.12,1.8-.25,3.29-.25,3.1,0,6.2.68,8.68,2.17,3.16,1.8,5.77,5.27,5.77,10.35,0,7.87-6.26,13.76-15,13.76-4.4,0-8.12-1.24-10.04-2.48l1.36-4.15c1.67.99,4.96,2.23,8.62,2.23,5.15,0,9.55-3.35,9.55-8.74-.06-5.21-3.53-8.93-11.59-8.93-2.29,0-4.09.25-5.58.43l2.6-19.34h19.28v4.59Z"/>
      <path class="cls-2" d="m322.86,367.83c1.55.99,5.15,2.54,8.93,2.54,7.01,0,9.18-4.46,9.11-7.81-.06-5.64-5.15-8.06-10.42-8.06h-3.04v-4.09h3.04c3.97,0,8.99-2.05,8.99-6.82,0-3.22-2.05-6.08-7.07-6.08-3.22,0-6.32,1.43-8.06,2.67l-1.43-3.97c2.11-1.55,6.2-3.1,10.54-3.1,7.94,0,11.53,4.71,11.53,9.61,0,4.15-2.48,7.69-7.44,9.49v.12c4.96.99,8.99,4.71,8.99,10.35,0,6.45-5.02,12.09-14.69,12.09-4.53,0-8.49-1.43-10.48-2.73l1.49-4.22Z"/>
      <path class="cls-2" d="m321.55,437.1v-3.35l4.28-4.15c10.29-9.79,14.94-15,15-21.08,0-4.09-1.98-7.87-8-7.87-3.66,0-6.7,1.86-8.56,3.41l-1.74-3.84c2.79-2.36,6.76-4.09,11.41-4.09,8.68,0,12.34,5.95,12.34,11.72,0,7.44-5.39,13.45-13.89,21.64l-3.22,2.98v.12h18.1v4.53h-25.73Z"/>
      <path class="cls-2" d="m321.06,489.87c0-5.08,3.04-8.68,8-10.79l-.06-.19c-4.46-2.11-6.39-5.58-6.39-9.05,0-6.39,5.39-10.73,12.46-10.73,7.81,0,11.72,4.9,11.72,9.92,0,3.41-1.67,7.07-6.63,9.42v.19c5.02,1.98,8.12,5.52,8.12,10.42,0,7.01-6.01,11.72-13.7,11.72-8.43,0-13.51-5.02-13.51-10.91Zm21.7-.25c0-4.9-3.41-7.25-8.87-8.8-4.71,1.36-7.25,4.46-7.25,8.31-.19,4.09,2.91,7.69,8.06,7.69s8.06-3.04,8.06-7.19Zm-15-20.15c0,4.03,3.04,6.2,7.69,7.44,3.47-1.18,6.14-3.66,6.14-7.32,0-3.22-1.92-6.57-6.82-6.57-4.53,0-7.01,2.98-7.01,6.45Z"/>
      <path class="cls-2" d="m333.39,527.88h-.12l-7.01,3.78-1.05-4.15,8.8-4.71h4.65v40.3h-5.27v-35.21Z"/>
    </g>
    <g>
      <polygon class="cls-2" points="344.51 235.64 339.54 228.51 335.91 228.51 335.92 232.11 344.62 244.69 349.83 244.69 349.83 207.06 344.51 207.06 344.51 235.64"/>
      <polygon class="cls-2" points="324.71 207.06 319.5 207.06 319.5 244.69 324.82 244.69 324.82 216.1 329.79 223.23 333.42 223.23 333.42 219.63 324.71 207.06"/>
    </g>
  </g>
  <g class="cls-8">
    <g>
      <path class="cls-2" d="m115.9,16.7c1.1.7,3.65,1.8,6.34,1.8,4.97,0,6.51-3.17,6.47-5.54-.04-4-3.65-5.72-7.39-5.72h-2.16v-2.9h2.16c2.82,0,6.38-1.45,6.38-4.84,0-2.29-1.45-4.31-5.02-4.31-2.29,0-4.49,1.01-5.72,1.89l-1.01-2.82c1.5-1.1,4.4-2.2,7.48-2.2,5.63,0,8.18,3.34,8.18,6.82,0,2.95-1.76,5.46-5.28,6.73v.09c3.52.7,6.38,3.34,6.38,7.35,0,4.58-3.56,8.58-10.43,8.58-3.21,0-6.03-1.01-7.44-1.94l1.06-2.99Z"/>
      <path class="cls-2" d="m114.97,76.15v-2.38l3.04-2.95c7.3-6.95,10.61-10.65,10.65-14.96,0-2.9-1.41-5.59-5.68-5.59-2.6,0-4.75,1.32-6.07,2.42l-1.23-2.73c1.98-1.67,4.8-2.9,8.1-2.9,6.16,0,8.76,4.22,8.76,8.32,0,5.28-3.83,9.55-9.86,15.36l-2.29,2.11v.09h12.85v3.21h-18.26Z"/>
      <path class="cls-2" d="m114.62,123.89c0-3.61,2.16-6.16,5.68-7.66l-.04-.13c-3.17-1.5-4.53-3.96-4.53-6.43,0-4.53,3.83-7.61,8.84-7.61,5.54,0,8.32,3.48,8.32,7.04,0,2.42-1.19,5.02-4.71,6.69v.13c3.56,1.41,5.77,3.92,5.77,7.39,0,4.97-4.27,8.32-9.73,8.32-5.99,0-9.59-3.56-9.59-7.75Zm15.4-.18c0-3.48-2.42-5.15-6.29-6.25-3.34.97-5.15,3.17-5.15,5.9-.13,2.9,2.07,5.46,5.72,5.46s5.72-2.16,5.72-5.11Zm-10.65-14.3c0,2.86,2.16,4.4,5.46,5.28,2.46-.84,4.36-2.6,4.36-5.19,0-2.29-1.36-4.66-4.84-4.66-3.21,0-4.97,2.11-4.97,4.58Z"/>
      <path class="cls-2" d="m123.38,161.15h-.09l-4.97,2.68-.75-2.95,6.25-3.34h3.3v28.6h-3.74v-25Z"/>
      <path class="cls-2" d="m132.05,215.8h-10.91l-1.1,7.35c.66-.09,1.28-.18,2.33-.18,2.2,0,4.4.48,6.16,1.54,2.24,1.28,4.09,3.74,4.09,7.35,0,5.59-4.45,9.77-10.65,9.77-3.12,0-5.77-.88-7.13-1.76l.97-2.95c1.19.7,3.52,1.58,6.12,1.58,3.65,0,6.78-2.38,6.78-6.21-.04-3.7-2.51-6.34-8.23-6.34-1.63,0-2.9.18-3.96.31l1.85-13.73h13.69v3.26Z"/>
      <path class="cls-2" d="m132.05,270.8h-10.91l-1.1,7.35c.66-.09,1.28-.18,2.33-.18,2.2,0,4.4.48,6.16,1.54,2.24,1.28,4.09,3.74,4.09,7.35,0,5.59-4.45,9.77-10.65,9.77-3.12,0-5.77-.88-7.13-1.76l.97-2.95c1.19.7,3.52,1.58,6.12,1.58,3.65,0,6.78-2.38,6.78-6.21-.04-3.7-2.51-6.34-8.23-6.34-1.63,0-2.9.18-3.96.31l1.85-13.73h13.69v3.26Z"/>
      <path class="cls-2" d="m115.9,346.7c1.1.7,3.65,1.8,6.34,1.8,4.97,0,6.51-3.17,6.47-5.54-.04-4-3.65-5.72-7.39-5.72h-2.16v-2.9h2.16c2.82,0,6.38-1.45,6.38-4.84,0-2.29-1.45-4.31-5.02-4.31-2.29,0-4.49,1.01-5.72,1.89l-1.01-2.82c1.5-1.1,4.4-2.2,7.48-2.2,5.63,0,8.18,3.34,8.18,6.82,0,2.95-1.76,5.46-5.28,6.73v.09c3.52.7,6.38,3.34,6.38,7.35,0,4.58-3.56,8.58-10.43,8.58-3.21,0-6.03-1.01-7.44-1.94l1.06-2.99Z"/>
      <path class="cls-2" d="m114.97,406.15v-2.38l3.04-2.95c7.3-6.95,10.61-10.65,10.65-14.96,0-2.9-1.41-5.59-5.68-5.59-2.6,0-4.75,1.32-6.07,2.42l-1.23-2.73c1.98-1.67,4.8-2.9,8.1-2.9,6.16,0,8.76,4.22,8.76,8.32,0,5.28-3.83,9.55-9.86,15.36l-2.29,2.11v.09h12.85v3.21h-18.26Z"/>
      <path class="cls-2" d="m114.62,453.89c0-3.61,2.16-6.16,5.68-7.66l-.04-.13c-3.17-1.5-4.53-3.96-4.53-6.43,0-4.53,3.83-7.61,8.84-7.61,5.54,0,8.32,3.48,8.32,7.04,0,2.42-1.19,5.02-4.71,6.69v.13c3.56,1.41,5.77,3.92,5.77,7.39,0,4.97-4.27,8.32-9.73,8.32-5.99,0-9.59-3.56-9.59-7.75Zm15.4-.18c0-3.48-2.42-5.15-6.29-6.25-3.34.97-5.15,3.17-5.15,5.9-.13,2.9,2.07,5.46,5.72,5.46s5.72-2.16,5.72-5.11Zm-10.65-14.3c0,2.86,2.16,4.4,5.46,5.28,2.46-.84,4.36-2.6,4.36-5.19,0-2.29-1.36-4.66-4.84-4.66-3.21,0-4.97,2.11-4.97,4.58Z"/>
      <path class="cls-2" d="m123.38,491.15h-.09l-4.97,2.68-.75-2.95,6.25-3.34h3.3v28.6h-3.74v-25Z"/>
      <path class="cls-2" d="m132.05,545.8h-10.91l-1.1,7.35c.66-.09,1.28-.18,2.33-.18,2.2,0,4.4.48,6.16,1.54,2.24,1.28,4.09,3.74,4.09,7.35,0,5.59-4.45,9.77-10.65,9.77-3.12,0-5.77-.88-7.13-1.76l.97-2.95c1.19.7,3.52,1.58,6.12,1.58,3.65,0,6.78-2.38,6.78-6.21-.04-3.7-2.51-6.34-8.23-6.34-1.63,0-2.9.18-3.96.31l1.85-13.73h13.69v3.26Z"/>
    </g>
  </g>
  <g class="cls-5">
    <g>
      <path class="cls-2" d="m229.35,130.25c1.1.7,3.65,1.8,6.34,1.8,4.97,0,6.51-3.17,6.47-5.54-.04-4-3.65-5.72-7.39-5.72h-2.16v-2.9h2.16c2.82,0,6.38-1.45,6.38-4.84,0-2.29-1.45-4.31-5.02-4.31-2.29,0-4.49,1.01-5.72,1.89l-1.01-2.82c1.5-1.1,4.4-2.2,7.48-2.2,5.63,0,8.19,3.34,8.19,6.82,0,2.95-1.76,5.46-5.28,6.73v.09c3.52.7,6.38,3.34,6.38,7.35,0,4.58-3.56,8.58-10.43,8.58-3.21,0-6.03-1.01-7.44-1.94l1.06-2.99Z"/>
      <path class="cls-2" d="m228.43,189.7v-2.38l3.04-2.95c7.31-6.95,10.61-10.65,10.65-14.96,0-2.9-1.41-5.59-5.68-5.59-2.6,0-4.75,1.32-6.07,2.42l-1.23-2.73c1.98-1.67,4.8-2.9,8.1-2.9,6.16,0,8.76,4.22,8.76,8.32,0,5.28-3.83,9.55-9.86,15.36l-2.29,2.11v.09h12.85v3.21h-18.26Z"/>
      <path class="cls-2" d="m228.07,237.44c0-3.61,2.16-6.16,5.68-7.66l-.04-.13c-3.17-1.5-4.53-3.96-4.53-6.43,0-4.53,3.83-7.61,8.85-7.61,5.54,0,8.32,3.48,8.32,7.04,0,2.42-1.19,5.02-4.71,6.69v.13c3.56,1.41,5.76,3.92,5.76,7.39,0,4.97-4.27,8.32-9.73,8.32-5.98,0-9.59-3.56-9.59-7.75Zm15.4-.18c0-3.48-2.42-5.15-6.29-6.25-3.34.97-5.15,3.17-5.15,5.9-.13,2.9,2.07,5.46,5.72,5.46s5.72-2.16,5.72-5.11Zm-10.65-14.3c0,2.86,2.16,4.4,5.46,5.28,2.46-.84,4.36-2.6,4.36-5.19,0-2.29-1.36-4.66-4.84-4.66-3.21,0-4.97,2.11-4.97,4.58Z"/>
      <path class="cls-2" d="m236.83,274.7h-.09l-4.97,2.68-.75-2.95,6.25-3.34h3.3v28.6h-3.74v-25Z"/>
      <path class="cls-2" d="m245.5,329.35h-10.91l-1.1,7.35c.66-.09,1.28-.18,2.33-.18,2.2,0,4.4.48,6.16,1.54,2.24,1.28,4.09,3.74,4.09,7.35,0,5.59-4.44,9.77-10.65,9.77-3.12,0-5.76-.88-7.13-1.76l.97-2.95c1.19.7,3.52,1.58,6.12,1.58,3.65,0,6.78-2.38,6.78-6.21-.04-3.7-2.51-6.34-8.23-6.34-1.63,0-2.9.18-3.96.31l1.85-13.73h13.69v3.26Z"/>
      <path class="cls-2" d="m245.5,384.35h-10.91l-1.1,7.35c.66-.09,1.28-.18,2.33-.18,2.2,0,4.4.48,6.16,1.54,2.24,1.28,4.09,3.74,4.09,7.35,0,5.59-4.44,9.77-10.65,9.77-3.12,0-5.76-.88-7.13-1.76l.97-2.95c1.19.7,3.52,1.58,6.12,1.58,3.65,0,6.78-2.38,6.78-6.21-.04-3.7-2.51-6.34-8.23-6.34-1.63,0-2.9.18-3.96.31l1.85-13.73h13.69v3.26Z"/>
      <path class="cls-2" d="m229.35,460.25c1.1.7,3.65,1.8,6.34,1.8,4.97,0,6.51-3.17,6.47-5.54-.04-4-3.65-5.72-7.39-5.72h-2.16v-2.9h2.16c2.82,0,6.38-1.45,6.38-4.84,0-2.29-1.45-4.31-5.02-4.31-2.29,0-4.49,1.01-5.72,1.89l-1.01-2.82c1.5-1.1,4.4-2.2,7.48-2.2,5.63,0,8.19,3.34,8.19,6.82,0,2.95-1.76,5.46-5.28,6.73v.09c3.52.7,6.38,3.34,6.38,7.35,0,4.58-3.56,8.58-10.43,8.58-3.21,0-6.03-1.01-7.44-1.94l1.06-2.99Z"/>
      <path class="cls-2" d="m228.43,519.7v-2.38l3.04-2.95c7.31-6.95,10.61-10.65,10.65-14.96,0-2.9-1.41-5.59-5.68-5.59-2.6,0-4.75,1.32-6.07,2.42l-1.23-2.73c1.98-1.67,4.8-2.9,8.1-2.9,6.16,0,8.76,4.22,8.76,8.32,0,5.28-3.83,9.55-9.86,15.36l-2.29,2.11v.09h12.85v3.21h-18.26Z"/>
      <path class="cls-2" d="m228.07,567.44c0-3.61,2.16-6.16,5.68-7.66l-.04-.13c-3.17-1.5-4.53-3.96-4.53-6.43,0-4.53,3.83-7.61,8.85-7.61,5.54,0,8.32,3.48,8.32,7.04,0,2.42-1.19,5.02-4.71,6.69v.13c3.56,1.41,5.76,3.92,5.76,7.39,0,4.97-4.27,8.32-9.73,8.32-5.98,0-9.59-3.56-9.59-7.75Zm15.4-.18c0-3.48-2.42-5.15-6.29-6.25-3.34.97-5.15,3.17-5.15,5.9-.13,2.9,2.07,5.46,5.72,5.46s5.72-2.16,5.72-5.11Zm-10.65-14.3c0,2.86,2.16,4.4,5.46,5.28,2.46-.84,4.36-2.6,4.36-5.19,0-2.29-1.36-4.66-4.84-4.66-3.21,0-4.97,2.11-4.97,4.58Z"/>
    </g>
  </g>
  <g>
    <path class="cls-2" d="m190.73,294.16c1.1.7,3.65,1.8,6.34,1.8,4.97,0,6.51-3.17,6.47-5.54-.04-4-3.65-5.72-7.39-5.72h-2.16v-2.9h2.16c2.82,0,6.38-1.45,6.38-4.84,0-2.29-1.45-4.31-5.02-4.31-2.29,0-4.49,1.01-5.72,1.89l-1.01-2.82c1.5-1.1,4.4-2.2,7.48-2.2,5.63,0,8.19,3.34,8.19,6.82,0,2.95-1.76,5.46-5.28,6.73v.09c3.52.7,6.38,3.34,6.38,7.35,0,4.58-3.56,8.58-10.43,8.58-3.21,0-6.03-1.01-7.44-1.94l1.06-2.99Z"/>
    <path class="cls-2" d="m189.81,353.6v-2.38l3.04-2.95c7.31-6.95,10.61-10.65,10.65-14.96,0-2.9-1.41-5.59-5.68-5.59-2.6,0-4.75,1.32-6.07,2.42l-1.23-2.73c1.98-1.67,4.8-2.9,8.1-2.9,6.16,0,8.76,4.22,8.76,8.32,0,5.28-3.83,9.55-9.86,15.36l-2.29,2.11v.09h12.85v3.21h-18.26Z"/>
    <path class="cls-2" d="m189.46,401.34c0-3.61,2.16-6.16,5.68-7.66l-.04-.13c-3.17-1.5-4.53-3.96-4.53-6.43,0-4.53,3.83-7.61,8.85-7.61,5.54,0,8.32,3.48,8.32,7.04,0,2.42-1.19,5.02-4.71,6.69v.13c3.56,1.41,5.77,3.92,5.77,7.39,0,4.97-4.27,8.32-9.73,8.32-5.99,0-9.59-3.56-9.59-7.75Zm15.4-.18c0-3.48-2.42-5.15-6.29-6.25-3.34.97-5.15,3.17-5.15,5.9-.13,2.9,2.07,5.46,5.72,5.46s5.72-2.16,5.72-5.11Zm-10.65-14.3c0,2.86,2.16,4.4,5.46,5.28,2.46-.84,4.36-2.6,4.36-5.19,0-2.29-1.36-4.66-4.84-4.66-3.21,0-4.97,2.11-4.97,4.58Z"/>
    <path class="cls-2" d="m198.21,438.61h-.09l-4.97,2.68-.75-2.95,6.25-3.34h3.3v28.6h-3.74v-25Z"/>
    <path class="cls-2" d="m206.88,493.26h-10.91l-1.1,7.35c.66-.09,1.28-.18,2.33-.18,2.2,0,4.4.48,6.16,1.54,2.24,1.28,4.09,3.74,4.09,7.35,0,5.59-4.45,9.77-10.65,9.77-3.12,0-5.76-.88-7.13-1.76l.97-2.95c1.19.7,3.52,1.58,6.12,1.58,3.65,0,6.78-2.38,6.78-6.21-.04-3.7-2.51-6.34-8.23-6.34-1.63,0-2.9.18-3.96.31l1.85-13.73h13.69v3.26Z"/>
    <path class="cls-2" d="m206.88,548.26h-10.91l-1.1,7.35c.66-.09,1.28-.18,2.33-.18,2.2,0,4.4.48,6.16,1.54,2.24,1.28,4.09,3.74,4.09,7.35,0,5.59-4.45,9.77-10.65,9.77-3.12,0-5.76-.88-7.13-1.76l.97-2.95c1.19.7,3.52,1.58,6.12,1.58,3.65,0,6.78-2.38,6.78-6.21-.04-3.7-2.51-6.34-8.23-6.34-1.63,0-2.9.18-3.96.31l1.85-13.73h13.69v3.26Z"/>
  </g>
  <g>
    <polygon class="cls-2" points="267.44 513.31 264.79 509.51 262.85 509.51 262.85 511.43 267.49 518.13 270.27 518.13 270.27 498.07 267.44 498.07 267.44 513.31"/>
    <polygon class="cls-2" points="256.88 498.07 254.11 498.07 254.11 518.13 256.94 518.13 256.94 502.89 259.59 506.7 261.53 506.7 261.52 504.77 256.88 498.07"/>
  </g>
  <g class="cls-6">
    <g>
      <path class="cls-2" d="m30.14,1.81c0-5.08,3.04-8.68,8-10.79l-.06-.19c-4.46-2.11-6.39-5.58-6.39-9.05,0-6.39,5.39-10.73,12.46-10.73,7.81,0,11.72,4.9,11.72,9.92,0,3.41-1.67,7.07-6.63,9.42v.19c5.02,1.98,8.12,5.52,8.12,10.42,0,7.01-6.01,11.72-13.7,11.72-8.43,0-13.51-5.02-13.51-10.91Zm21.7-.25c0-4.9-3.41-7.25-8.87-8.8-4.71,1.36-7.25,4.46-7.25,8.31-.19,4.09,2.91,7.69,8.06,7.69s8.06-3.04,8.06-7.19Zm-15-20.15c0,4.03,3.04,6.2,7.69,7.44,3.47-1.18,6.14-3.66,6.14-7.32,0-3.22-1.92-6.57-6.82-6.57-4.53,0-7.01,2.98-7.01,6.45Z"/>
      <path class="cls-2" d="m42.48,39.83h-.12l-7.01,3.78-1.05-4.15,8.8-4.71h4.65v40.3h-5.27v-35.21Z"/>
      <path class="cls-2" d="m54.69,102.33h-15.38l-1.55,10.35c.93-.12,1.8-.25,3.29-.25,3.1,0,6.2.68,8.68,2.17,3.16,1.8,5.77,5.27,5.77,10.35,0,7.87-6.26,13.76-15,13.76-4.4,0-8.12-1.24-10.04-2.48l1.36-4.15c1.67.99,4.96,2.23,8.62,2.23,5.15,0,9.55-3.35,9.55-8.74-.06-5.21-3.53-8.93-11.59-8.93-2.29,0-4.09.25-5.58.43l2.6-19.34h19.28v4.59Z"/>
      <path class="cls-2" d="m54.69,165.33h-15.38l-1.55,10.35c.93-.12,1.8-.25,3.29-.25,3.1,0,6.2.68,8.68,2.17,3.16,1.8,5.77,5.27,5.77,10.35,0,7.87-6.26,13.76-15,13.76-4.4,0-8.12-1.24-10.04-2.48l1.36-4.15c1.67.99,4.96,2.23,8.62,2.23,5.15,0,9.55-3.35,9.55-8.74-.06-5.21-3.53-8.93-11.59-8.93-2.29,0-4.09.25-5.58.43l2.6-19.34h19.28v4.59Z"/>
      <path class="cls-2" d="m31.94,257.78c1.55.99,5.15,2.54,8.93,2.54,7.01,0,9.18-4.46,9.11-7.81-.06-5.64-5.15-8.06-10.42-8.06h-3.04v-4.09h3.04c3.97,0,8.99-2.05,8.99-6.82,0-3.22-2.05-6.08-7.07-6.08-3.22,0-6.32,1.43-8.06,2.67l-1.43-3.97c2.11-1.55,6.2-3.1,10.54-3.1,7.94,0,11.53,4.71,11.53,9.61,0,4.15-2.48,7.69-7.44,9.49v.12c4.96.99,8.99,4.71,8.99,10.35,0,6.45-5.02,12.09-14.69,12.09-4.53,0-8.49-1.43-10.48-2.73l1.49-4.22Z"/>
      <path class="cls-2" d="m30.63,327.04v-3.35l4.28-4.15c10.29-9.79,14.94-15,15-21.08,0-4.09-1.98-7.87-8-7.87-3.66,0-6.7,1.86-8.56,3.41l-1.74-3.84c2.79-2.36,6.76-4.09,11.41-4.09,8.68,0,12.34,5.95,12.34,11.72,0,7.44-5.39,13.45-13.89,21.64l-3.22,2.98v.12h18.1v4.53h-25.73Z"/>
      <path class="cls-2" d="m30.14,379.81c0-5.08,3.04-8.68,8-10.79l-.06-.19c-4.46-2.11-6.39-5.58-6.39-9.05,0-6.39,5.39-10.73,12.46-10.73,7.81,0,11.72,4.9,11.72,9.92,0,3.41-1.67,7.07-6.63,9.42v.19c5.02,1.98,8.12,5.52,8.12,10.42,0,7.01-6.01,11.72-13.7,11.72-8.43,0-13.51-5.02-13.51-10.91Zm21.7-.25c0-4.9-3.41-7.25-8.87-8.8-4.71,1.36-7.25,4.46-7.25,8.31-.19,4.09,2.91,7.69,8.06,7.69s8.06-3.04,8.06-7.19Zm-15-20.15c0,4.03,3.04,6.2,7.69,7.44,3.47-1.18,6.14-3.66,6.14-7.32,0-3.22-1.92-6.57-6.82-6.57-4.53,0-7.01,2.98-7.01,6.45Z"/>
      <path class="cls-2" d="m42.48,417.83h-.12l-7.01,3.78-1.05-4.15,8.8-4.71h4.65v40.3h-5.27v-35.21Z"/>
    </g>
  </g>
  <g>
    <path class="cls-2" d="m319.07,290.19h-.04l-2.37,1.28-.36-1.41,2.98-1.6h1.58v13.65h-1.79v-11.93Z"/>
    <path class="cls-2" d="m315.06,327.31v-1.13l1.45-1.41c3.49-3.32,5.06-5.08,5.08-7.14,0-1.38-.67-2.67-2.71-2.67-1.24,0-2.27.63-2.9,1.15l-.59-1.3c.94-.8,2.29-1.39,3.86-1.39,2.94,0,4.18,2.02,4.18,3.97,0,2.52-1.83,4.56-4.7,7.33l-1.09,1.01v.04h6.13v1.53h-8.71Z"/>
    <path class="cls-2" d="m315.5,350.39c.53.34,1.74.86,3.02.86,2.37,0,3.11-1.51,3.09-2.65-.02-1.91-1.74-2.73-3.53-2.73h-1.03v-1.39h1.03c1.34,0,3.04-.69,3.04-2.31,0-1.09-.69-2.06-2.39-2.06-1.09,0-2.14.48-2.73.9l-.48-1.34c.71-.52,2.1-1.05,3.57-1.05,2.69,0,3.91,1.6,3.91,3.25,0,1.41-.84,2.6-2.52,3.21v.04c1.68.34,3.04,1.6,3.04,3.51,0,2.18-1.7,4.09-4.98,4.09-1.53,0-2.88-.48-3.55-.92l.5-1.43Z"/>
    <path class="cls-2" d="m323.21,365.62h-5.21l-.53,3.51c.32-.04.61-.08,1.11-.08,1.05,0,2.1.23,2.94.74,1.07.61,1.95,1.78,1.95,3.51,0,2.67-2.12,4.66-5.08,4.66-1.49,0-2.75-.42-3.4-.84l.46-1.41c.57.34,1.68.76,2.92.76,1.74,0,3.23-1.13,3.23-2.96-.02-1.76-1.2-3.02-3.93-3.02-.78,0-1.39.08-1.89.15l.88-6.55h6.53v1.55Z"/>
    <path class="cls-2" d="m314.89,399.45c0-1.72,1.03-2.94,2.71-3.65l-.02-.06c-1.51-.71-2.16-1.89-2.16-3.07,0-2.16,1.83-3.63,4.22-3.63,2.65,0,3.97,1.66,3.97,3.36,0,1.15-.57,2.39-2.25,3.19v.06c1.7.67,2.75,1.87,2.75,3.53,0,2.37-2.04,3.97-4.64,3.97-2.86,0-4.58-1.7-4.58-3.7Zm7.35-.08c0-1.66-1.16-2.46-3-2.98-1.6.46-2.46,1.51-2.46,2.81-.06,1.38.99,2.6,2.73,2.6s2.73-1.03,2.73-2.44Zm-5.08-6.82c0,1.37,1.03,2.1,2.6,2.52,1.18-.4,2.08-1.24,2.08-2.48,0-1.09-.65-2.23-2.31-2.23-1.53,0-2.37,1.01-2.37,2.18Z"/>
  </g>
  <g class="cls-8">
    <g>
      <path class="cls-2" d="m295.33,30.64c1.1.7,3.65,1.8,6.34,1.8,4.97,0,6.51-3.17,6.47-5.54-.04-4-3.65-5.72-7.39-5.72h-2.16v-2.9h2.16c2.82,0,6.38-1.45,6.38-4.84,0-2.29-1.45-4.31-5.02-4.31-2.29,0-4.49,1.01-5.72,1.89l-1.01-2.82c1.5-1.1,4.4-2.2,7.48-2.2,5.63,0,8.19,3.34,8.19,6.82,0,2.95-1.76,5.46-5.28,6.73v.09c3.52.7,6.38,3.34,6.38,7.35,0,4.58-3.56,8.58-10.43,8.58-3.21,0-6.03-1.01-7.44-1.94l1.06-2.99Z"/>
      <path class="cls-2" d="m294.4,90.09v-2.38l3.04-2.95c7.31-6.95,10.61-10.65,10.65-14.96,0-2.9-1.41-5.59-5.68-5.59-2.6,0-4.75,1.32-6.07,2.42l-1.23-2.73c1.98-1.67,4.8-2.9,8.1-2.9,6.16,0,8.76,4.22,8.76,8.32,0,5.28-3.83,9.55-9.86,15.36l-2.29,2.11v.09h12.85v3.21h-18.26Z"/>
      <path class="cls-2" d="m294.05,137.83c0-3.61,2.16-6.16,5.68-7.66l-.04-.13c-3.17-1.5-4.53-3.96-4.53-6.43,0-4.53,3.83-7.61,8.85-7.61,5.54,0,8.32,3.48,8.32,7.04,0,2.42-1.19,5.02-4.71,6.69v.13c3.56,1.41,5.76,3.92,5.76,7.39,0,4.97-4.27,8.32-9.73,8.32-5.98,0-9.59-3.56-9.59-7.75Zm15.4-.18c0-3.48-2.42-5.15-6.29-6.25-3.34.97-5.15,3.17-5.15,5.9-.13,2.9,2.07,5.46,5.72,5.46s5.72-2.16,5.72-5.11Zm-10.65-14.3c0,2.86,2.16,4.4,5.46,5.28,2.46-.84,4.36-2.6,4.36-5.19,0-2.29-1.36-4.66-4.84-4.66-3.21,0-4.97,2.11-4.97,4.58Z"/>
      <path class="cls-2" d="m302.81,175.09h-.09l-4.97,2.68-.75-2.95,6.25-3.34h3.3v28.6h-3.74v-25Z"/>
      <path class="cls-2" d="m311.48,229.74h-10.91l-1.1,7.35c.66-.09,1.28-.18,2.33-.18,2.2,0,4.4.48,6.16,1.54,2.24,1.28,4.09,3.74,4.09,7.35,0,5.59-4.44,9.77-10.65,9.77-3.12,0-5.76-.88-7.13-1.76l.97-2.95c1.19.7,3.52,1.58,6.12,1.58,3.65,0,6.78-2.38,6.78-6.21-.04-3.7-2.51-6.34-8.23-6.34-1.63,0-2.9.18-3.96.31l1.85-13.73h13.69v3.26Z"/>
      <path class="cls-2" d="m311.48,284.74h-10.91l-1.1,7.35c.66-.09,1.28-.18,2.33-.18,2.2,0,4.4.48,6.16,1.54,2.24,1.28,4.09,3.74,4.09,7.35,0,5.59-4.44,9.77-10.65,9.77-3.12,0-5.76-.88-7.13-1.76l.97-2.95c1.19.7,3.52,1.58,6.12,1.58,3.65,0,6.78-2.38,6.78-6.21-.04-3.7-2.51-6.34-8.23-6.34-1.63,0-2.9.18-3.96.31l1.85-13.73h13.69v3.26Z"/>
      <path class="cls-2" d="m295.33,360.64c1.1.7,3.65,1.8,6.34,1.8,4.97,0,6.51-3.17,6.47-5.54-.04-4-3.65-5.72-7.39-5.72h-2.16v-2.9h2.16c2.82,0,6.38-1.45,6.38-4.84,0-2.29-1.45-4.31-5.02-4.31-2.29,0-4.49,1.01-5.72,1.89l-1.01-2.82c1.5-1.1,4.4-2.2,7.48-2.2,5.63,0,8.19,3.34,8.19,6.82,0,2.95-1.76,5.46-5.28,6.73v.09c3.52.7,6.38,3.34,6.38,7.35,0,4.58-3.56,8.58-10.43,8.58-3.21,0-6.03-1.01-7.44-1.94l1.06-2.99Z"/>
      <path class="cls-2" d="m294.4,420.09v-2.38l3.04-2.95c7.31-6.95,10.61-10.65,10.65-14.96,0-2.9-1.41-5.59-5.68-5.59-2.6,0-4.75,1.32-6.07,2.42l-1.23-2.73c1.98-1.67,4.8-2.9,8.1-2.9,6.16,0,8.76,4.22,8.76,8.32,0,5.28-3.83,9.55-9.86,15.36l-2.29,2.11v.09h12.85v3.21h-18.26Z"/>
      <path class="cls-2" d="m294.05,467.83c0-3.61,2.16-6.16,5.68-7.66l-.04-.13c-3.17-1.5-4.53-3.96-4.53-6.43,0-4.53,3.83-7.61,8.85-7.61,5.54,0,8.32,3.48,8.32,7.04,0,2.42-1.19,5.02-4.71,6.69v.13c3.56,1.41,5.76,3.92,5.76,7.39,0,4.97-4.27,8.32-9.73,8.32-5.98,0-9.59-3.56-9.59-7.75Zm15.4-.18c0-3.48-2.42-5.15-6.29-6.25-3.34.97-5.15,3.17-5.15,5.9-.13,2.9,2.07,5.46,5.72,5.46s5.72-2.16,5.72-5.11Zm-10.65-14.3c0,2.86,2.16,4.4,5.46,5.28,2.46-.84,4.36-2.6,4.36-5.19,0-2.29-1.36-4.66-4.84-4.66-3.21,0-4.97,2.11-4.97,4.58Z"/>
      <path class="cls-2" d="m302.81,505.09h-.09l-4.97,2.68-.75-2.95,6.25-3.34h3.3v28.6h-3.74v-25Z"/>
      <path class="cls-2" d="m311.48,559.74h-10.91l-1.1,7.35c.66-.09,1.28-.18,2.33-.18,2.2,0,4.4.48,6.16,1.54,2.24,1.28,4.09,3.74,4.09,7.35,0,5.59-4.44,9.77-10.65,9.77-3.12,0-5.76-.88-7.13-1.76l.97-2.95c1.19.7,3.52,1.58,6.12,1.58,3.65,0,6.78-2.38,6.78-6.21-.04-3.7-2.51-6.34-8.23-6.34-1.63,0-2.9.18-3.96.31l1.85-13.73h13.69v3.26Z"/>
    </g>
  </g>
</svg>