<?xml version="1.0" encoding="UTF-8"?>
<svg id="Ebene_1" data-name="Ebene 1" xmlns="http://www.w3.org/2000/svg" xmlns:xlink="http://www.w3.org/1999/xlink" viewBox="0 0 355 589">
  <defs>
    <style>
      .cls-1 {
        fill: none;
      }

      .cls-2 {
        clip-path: url(#clippath);
      }

      .cls-3 {
        fill: #eaeaea;
      }

      .cls-4 {
        fill: #f45169;
      }
    </style>
    <clipPath id="clippath">
      <rect class="cls-1" x="-135.81" y="-53.83" width="604.09" height="703.45" transform="translate(-116.81 107.47) rotate(-26.9)"/>
    </clipPath>
  </defs>
  <rect class="cls-3" x="-21.47" y="-10.82" width="383.68" height="607.93"/>
  <g class="cls-2">
    <g>
      <polygon class="cls-4" points="27.12 -25.93 22.56 -23.62 39.4 9.57 44.06 7.21 31.26 -18 38.81 -13.93 41.99 -15.54 40.37 -18.72 27.12 -25.93"/>
      <polygon class="cls-4" points="2.15 83.54 -5.4 79.45 -8.58 81.07 -6.97 84.25 6.29 91.47 10.85 89.15 -5.99 55.96 -10.65 58.32 2.15 83.54"/>
      <g>
        <polygon class="cls-4" points="29.7 37.01 22.16 32.92 18.97 34.54 20.59 37.72 33.85 44.94 38.41 42.62 21.56 9.43 16.91 11.79 29.7 37.01"/>
        <polygon class="cls-4" points="-.44 20.6 -5 22.91 11.84 56.1 16.5 53.74 3.7 28.53 11.25 32.6 14.43 30.99 12.82 27.81 -.44 20.6"/>
      </g>
      <g>
        <polygon class="cls-4" points="83.53 42.24 75.98 38.16 72.8 39.77 74.42 42.95 87.67 50.17 92.23 47.86 75.39 14.66 70.73 17.03 83.53 42.24"/>
        <polygon class="cls-4" points="53.39 25.83 48.82 28.14 65.67 61.34 70.32 58.97 57.53 33.76 65.08 37.84 68.26 36.23 66.64 33.05 53.39 25.83"/>
      </g>
      <g>
        <polygon class="cls-4" points="111.08 -4.29 103.54 -8.37 100.36 -6.76 101.97 -3.58 115.23 3.64 119.79 1.33 102.95 -31.87 98.29 -29.5 111.08 -4.29"/>
        <polygon class="cls-4" points="80.94 -20.7 76.38 -18.39 93.22 14.81 97.88 12.44 85.09 -12.77 92.64 -8.69 95.81 -10.3 94.2 -13.48 80.94 -20.7"/>
      </g>
      <g>
        <polygon class="cls-4" points="164.91 .94 157.36 -3.14 154.18 -1.52 155.8 1.65 169.05 8.87 173.61 6.56 156.77 -26.63 152.12 -24.27 164.91 .94"/>
        <polygon class="cls-4" points="134.77 -15.47 130.21 -13.15 147.05 20.04 151.71 17.68 138.91 -7.54 146.46 -3.46 149.64 -5.07 148.02 -8.25 134.77 -15.47"/>
      </g>
      <g>
        <polygon class="cls-4" points="28.41 135.3 20.86 131.22 17.68 132.83 19.3 136.01 32.56 143.23 37.12 140.92 20.27 107.72 15.62 110.09 28.41 135.3"/>
        <polygon class="cls-4" points="-1.73 118.89 -6.29 121.2 10.55 154.4 15.21 152.03 2.41 126.82 9.96 130.9 13.14 129.29 11.53 126.11 -1.73 118.89"/>
      </g>
      <g>
        <polygon class="cls-4" points="55.97 88.77 48.42 84.69 45.24 86.3 46.86 89.48 60.11 96.7 64.67 94.39 47.83 61.19 43.18 63.56 55.97 88.77"/>
        <polygon class="cls-4" points="25.83 72.36 21.27 74.67 38.11 107.87 42.77 105.5 29.97 80.29 37.52 84.37 40.7 82.76 39.08 79.58 25.83 72.36"/>
      </g>
      <g>
        <polygon class="cls-4" points="109.79 94 102.25 89.92 99.07 91.54 100.68 94.71 113.94 101.93 118.5 99.62 101.66 66.43 97 68.79 109.79 94"/>
        <polygon class="cls-4" points="79.65 77.59 75.09 79.91 91.93 113.1 96.59 110.74 83.8 85.52 91.35 89.6 94.52 87.99 92.91 84.81 79.65 77.59"/>
      </g>
      <g>
        <polygon class="cls-4" points="137.35 47.47 129.8 43.39 126.62 45.01 128.24 48.18 141.5 55.4 146.06 53.09 129.21 19.9 124.56 22.26 137.35 47.47"/>
        <polygon class="cls-4" points="107.21 31.06 102.65 33.38 119.49 66.57 124.15 64.21 111.35 38.99 118.9 43.07 122.08 41.46 120.47 38.28 107.21 31.06"/>
      </g>
      <g>
        <polygon class="cls-4" points="191.18 52.71 183.63 48.63 180.45 50.24 182.07 53.42 195.32 60.64 199.88 58.32 183.04 25.13 178.38 27.49 191.18 52.71"/>
        <polygon class="cls-4" points="161.04 36.3 156.47 38.61 173.32 71.8 177.97 69.44 165.18 44.23 172.73 48.31 175.91 46.69 174.29 43.52 161.04 36.3"/>
      </g>
      <g>
        <polygon class="cls-4" points="218.73 6.18 211.19 2.1 208 3.71 209.62 6.89 222.88 14.11 227.44 11.79 210.6 -21.4 205.94 -19.04 218.73 6.18"/>
        <polygon class="cls-4" points="188.59 -10.23 184.03 -7.92 200.87 25.27 205.53 22.91 192.74 -2.3 200.28 1.78 203.46 .16 201.85 -3.01 188.59 -10.23"/>
      </g>
      <g>
        <polygon class="cls-4" points="272.56 11.41 265.01 7.33 261.83 8.94 263.45 12.12 276.7 19.34 281.26 17.03 264.42 -16.16 259.76 -13.8 272.56 11.41"/>
        <polygon class="cls-4" points="242.42 -5 237.85 -2.68 254.7 30.51 259.35 28.14 246.56 2.93 254.11 7.01 257.29 5.4 255.67 2.22 242.42 -5"/>
      </g>
      <polygon class="cls-4" points=".86 181.83 -6.69 177.75 -9.87 179.36 -8.26 182.54 5 189.76 9.56 187.45 -7.28 154.25 -11.94 156.62 .86 181.83"/>
      <g>
        <polygon class="cls-4" points="54.68 187.06 47.13 182.98 43.95 184.6 45.57 187.77 58.82 194.99 63.38 192.68 46.54 159.49 41.89 161.85 54.68 187.06"/>
        <polygon class="cls-4" points="24.54 170.65 19.98 172.97 36.82 206.16 41.48 203.8 28.68 178.58 36.23 182.66 39.41 181.05 37.79 177.87 24.54 170.65"/>
      </g>
      <g>
        <polygon class="cls-4" points="82.24 140.53 74.69 136.45 71.51 138.07 73.13 141.24 86.38 148.46 90.94 146.15 74.1 112.96 69.44 115.32 82.24 140.53"/>
        <polygon class="cls-4" points="52.1 124.12 47.53 126.44 64.38 159.63 69.03 157.27 56.24 132.05 63.79 136.13 66.97 134.52 65.35 131.34 52.1 124.12"/>
      </g>
      <g>
        <polygon class="cls-4" points="136.06 145.77 128.51 141.69 125.33 143.3 126.95 146.48 140.2 153.7 144.77 151.38 127.92 118.19 123.27 120.55 136.06 145.77"/>
        <polygon class="cls-4" points="105.92 129.36 101.36 131.67 118.2 164.86 122.86 162.5 110.06 137.29 117.61 141.37 120.79 139.75 119.18 136.58 105.92 129.36"/>
      </g>
      <g>
        <polygon class="cls-4" points="163.62 99.24 156.07 95.16 152.89 96.77 154.51 99.95 167.76 107.17 172.32 104.85 155.48 71.66 150.82 74.02 163.62 99.24"/>
        <polygon class="cls-4" points="133.48 82.83 128.92 85.14 145.76 118.33 150.41 115.97 137.62 90.76 145.17 94.84 148.35 93.22 146.73 90.05 133.48 82.83"/>
      </g>
      <g>
        <polygon class="cls-4" points="217.44 104.47 209.9 100.39 206.71 102 208.33 105.18 221.59 112.4 226.15 110.09 209.3 76.9 204.65 79.26 217.44 104.47"/>
        <polygon class="cls-4" points="187.3 88.06 182.74 90.38 199.58 123.57 204.24 121.2 191.44 95.99 198.99 100.07 202.17 98.46 200.56 95.28 187.3 88.06"/>
      </g>
      <g>
        <polygon class="cls-4" points="245 57.94 237.45 53.86 234.27 55.47 235.89 58.65 249.14 65.87 253.7 63.56 236.86 30.37 232.21 32.73 245 57.94"/>
        <polygon class="cls-4" points="214.86 41.53 210.3 43.85 227.14 77.04 231.8 74.67 219 49.46 226.55 53.54 229.73 51.93 228.11 48.75 214.86 41.53"/>
      </g>
      <g>
        <polygon class="cls-4" points="298.83 63.18 291.28 59.09 288.1 60.71 289.71 63.89 302.97 71.11 307.53 68.79 290.69 35.6 286.03 37.96 298.83 63.18"/>
        <polygon class="cls-4" points="268.68 46.77 264.12 49.08 280.96 82.27 285.62 79.91 272.83 54.7 280.38 58.77 283.56 57.16 281.94 53.98 268.68 46.77"/>
      </g>
      <g>
        <polygon class="cls-4" points="326.38 16.65 318.83 12.56 315.65 14.18 317.27 17.35 330.53 24.58 335.09 22.26 318.24 -10.93 313.59 -8.57 326.38 16.65"/>
        <polygon class="cls-4" points="296.24 .23 291.68 2.55 308.52 35.74 313.18 33.38 300.38 8.17 307.93 12.24 311.11 10.63 309.5 7.45 296.24 .23"/>
      </g>
      <polygon class="cls-4" points="350.07 5.47 345.5 7.78 362.35 40.98 367 38.61 354.21 13.4 361.76 17.48 364.94 15.87 363.32 12.69 350.07 5.47"/>
      <polygon class="cls-4" points="-.44 280.12 -7.98 276.04 -11.16 277.66 -9.55 280.83 3.71 288.05 8.27 285.74 -8.57 252.55 -13.23 254.91 -.44 280.12"/>
      <g>
        <polygon class="cls-4" points="27.12 233.59 19.57 229.51 16.39 231.13 18.01 234.3 31.27 241.52 35.83 239.21 18.98 206.02 14.33 208.38 27.12 233.59"/>
        <polygon class="cls-4" points="-3.02 217.18 -7.58 219.5 9.26 252.69 13.92 250.33 1.12 225.11 8.67 229.19 11.85 227.58 10.24 224.4 -3.02 217.18"/>
      </g>
      <g>
        <polygon class="cls-4" points="80.95 238.83 73.4 234.75 70.22 236.36 71.84 239.54 85.09 246.76 89.65 244.44 72.81 211.25 68.15 213.61 80.95 238.83"/>
        <polygon class="cls-4" points="50.81 222.42 46.24 224.73 63.09 257.92 67.74 255.56 54.95 230.35 62.5 234.43 65.68 232.81 64.06 229.64 50.81 222.42"/>
      </g>
      <g>
        <polygon class="cls-4" points="108.5 192.3 100.96 188.22 97.78 189.83 99.39 193.01 112.65 200.23 117.21 197.91 100.37 164.72 95.71 167.08 108.5 192.3"/>
        <polygon class="cls-4" points="78.36 175.89 73.8 178.2 90.64 211.39 95.3 209.03 82.51 183.82 90.05 187.9 93.23 186.28 91.62 183.11 78.36 175.89"/>
      </g>
      <g>
        <polygon class="cls-4" points="162.33 197.53 154.78 193.45 151.6 195.06 153.22 198.24 166.47 205.46 171.03 203.15 154.19 169.96 149.53 172.32 162.33 197.53"/>
        <polygon class="cls-4" points="132.19 181.12 127.62 183.44 144.47 216.63 149.12 214.26 136.33 189.05 143.88 193.13 147.06 191.52 145.44 188.34 132.19 181.12"/>
      </g>
      <g>
        <polygon class="cls-4" points="189.89 151 182.34 146.92 179.16 148.53 180.77 151.71 194.03 158.93 198.59 156.62 181.75 123.43 177.09 125.79 189.89 151"/>
        <polygon class="cls-4" points="159.74 134.59 155.18 136.91 172.02 170.1 176.68 167.73 163.89 142.52 171.44 146.6 174.62 144.99 173 141.81 159.74 134.59"/>
      </g>
      <g>
        <polygon class="cls-4" points="243.71 156.24 236.16 152.15 232.98 153.77 234.6 156.95 247.85 164.17 252.41 161.85 235.57 128.66 230.92 131.02 243.71 156.24"/>
        <polygon class="cls-4" points="213.57 139.83 209.01 142.14 225.85 175.33 230.51 172.97 217.71 147.76 225.26 151.83 228.44 150.22 226.82 147.04 213.57 139.83"/>
      </g>
      <g>
        <polygon class="cls-4" points="271.27 109.71 263.72 105.62 260.54 107.24 262.16 110.42 275.41 117.64 279.97 115.32 263.13 82.13 258.47 84.49 271.27 109.71"/>
        <polygon class="cls-4" points="241.13 93.3 236.56 95.61 253.41 128.8 258.06 126.44 245.27 101.23 252.82 105.3 256 103.69 254.38 100.51 241.13 93.3"/>
      </g>
      <g>
        <polygon class="cls-4" points="325.09 114.94 317.54 110.86 314.36 112.47 315.98 115.65 329.24 122.87 333.8 120.56 316.95 87.36 312.3 89.73 325.09 114.94"/>
        <polygon class="cls-4" points="294.95 98.53 290.39 100.84 307.23 134.04 311.89 131.67 299.09 106.46 306.64 110.54 309.82 108.93 308.21 105.75 294.95 98.53"/>
      </g>
      <g>
        <polygon class="cls-4" points="352.65 68.41 345.1 64.33 341.92 65.94 343.54 69.12 356.79 76.34 361.35 74.03 344.51 40.83 339.86 43.2 352.65 68.41"/>
        <polygon class="cls-4" points="322.51 52 317.95 54.31 334.79 87.51 339.45 85.14 326.65 59.93 334.2 64.01 337.38 62.4 335.76 59.22 322.51 52"/>
      </g>
      <g>
        <polygon class="cls-4" points="25.83 331.89 18.28 327.81 15.1 329.42 16.72 332.6 29.97 339.82 34.54 337.5 17.69 304.31 13.04 306.68 25.83 331.89"/>
        <polygon class="cls-4" points="-4.31 315.48 -8.87 317.79 7.97 350.98 12.63 348.62 -.17 323.41 7.38 327.49 10.56 325.87 8.95 322.7 -4.31 315.48"/>
      </g>
      <g>
        <polygon class="cls-4" points="53.39 285.36 45.84 281.28 42.66 282.89 44.28 286.07 57.53 293.29 62.09 290.97 45.25 257.78 40.6 260.14 53.39 285.36"/>
        <polygon class="cls-4" points="23.25 268.95 18.69 271.26 35.53 304.45 40.19 302.09 27.39 276.88 34.94 280.96 38.12 279.34 36.5 276.17 23.25 268.95"/>
      </g>
      <g>
        <polygon class="cls-4" points="107.21 290.59 99.67 286.51 96.48 288.12 98.1 291.3 111.36 298.52 115.92 296.21 99.08 263.02 94.42 265.38 107.21 290.59"/>
        <polygon class="cls-4" points="77.07 274.18 72.51 276.5 89.35 309.69 94.01 307.32 81.22 282.11 88.76 286.19 91.94 284.58 90.33 281.4 77.07 274.18"/>
      </g>
      <g>
        <polygon class="cls-4" points="134.77 244.06 127.22 239.98 124.04 241.59 125.66 244.77 138.91 251.99 143.48 249.68 126.63 216.49 121.98 218.85 134.77 244.06"/>
        <polygon class="cls-4" points="104.63 227.65 100.07 229.97 116.91 263.16 121.57 260.79 108.77 235.58 116.32 239.66 119.5 238.05 117.88 234.87 104.63 227.65"/>
      </g>
      <g>
        <polygon class="cls-4" points="188.6 249.3 181.05 245.21 177.87 246.83 179.48 250.01 192.74 257.23 197.3 254.91 180.46 221.72 175.8 224.08 188.6 249.3"/>
        <polygon class="cls-4" points="158.45 232.89 153.89 235.2 170.73 268.39 175.39 266.03 162.6 240.82 170.15 244.89 173.33 243.28 171.71 240.1 158.45 232.89"/>
      </g>
      <g>
        <polygon class="cls-4" points="216.15 202.77 208.6 198.68 205.42 200.3 207.04 203.48 220.3 210.7 224.86 208.38 208.01 175.19 203.36 177.55 216.15 202.77"/>
        <polygon class="cls-4" points="186.01 186.36 181.45 188.67 198.29 221.86 202.95 219.5 190.15 194.29 197.7 198.36 200.88 196.75 199.27 193.57 186.01 186.36"/>
      </g>
      <g>
        <polygon class="cls-4" points="269.98 208 262.43 203.92 259.25 205.53 260.87 208.71 274.12 215.93 278.68 213.62 261.84 180.42 257.18 182.79 269.98 208"/>
        <polygon class="cls-4" points="239.84 191.59 235.27 193.9 252.12 227.1 256.77 224.73 243.98 199.52 251.53 203.6 254.71 201.99 253.09 198.81 239.84 191.59"/>
      </g>
      <g>
        <polygon class="cls-4" points="297.53 161.47 289.99 157.39 286.81 159 288.42 162.18 301.68 169.4 306.24 167.09 289.4 133.89 284.74 136.26 297.53 161.47"/>
        <polygon class="cls-4" points="267.39 145.06 262.83 147.37 279.67 180.57 284.33 178.2 271.54 152.99 279.09 157.07 282.26 155.46 280.65 152.28 267.39 145.06"/>
      </g>
      <g>
        <polygon class="cls-4" points="351.36 166.7 343.81 162.62 340.63 164.24 342.25 167.41 355.5 174.63 360.06 172.32 343.22 139.13 338.56 141.49 351.36 166.7"/>
        <polygon class="cls-4" points="321.22 150.29 316.66 152.61 333.5 185.8 338.15 183.44 325.36 158.22 332.91 162.3 336.09 160.69 334.47 157.51 321.22 150.29"/>
      </g>
      <polygon class="cls-4" points="348.78 103.76 344.21 106.08 361.06 139.27 365.71 136.91 352.92 111.69 360.47 115.77 363.65 114.16 362.03 110.98 348.78 103.76"/>
      <polygon class="cls-4" points="-1.73 378.42 -9.27 374.34 -12.45 375.95 -10.84 379.13 2.42 386.35 6.98 384.03 -9.86 350.84 -14.52 353.21 -1.73 378.42"/>
      <g>
        <polygon class="cls-4" points="52.1 383.65 44.55 379.57 41.37 381.18 42.99 384.36 56.24 391.58 60.8 389.27 43.96 356.08 39.3 358.44 52.1 383.65"/>
        <polygon class="cls-4" points="21.96 367.24 17.4 369.56 34.24 402.75 38.89 400.39 26.1 375.17 33.65 379.25 36.83 377.64 35.21 374.46 21.96 367.24"/>
      </g>
      <g>
        <polygon class="cls-4" points="79.66 337.12 72.11 333.04 68.93 334.65 70.55 337.83 83.8 345.05 88.36 342.74 71.52 309.55 66.86 311.91 79.66 337.12"/>
        <polygon class="cls-4" points="49.52 320.71 44.95 323.03 61.8 356.22 66.45 353.86 53.66 328.64 61.21 332.72 64.39 331.11 62.77 327.93 49.52 320.71"/>
      </g>
      <g>
        <polygon class="cls-4" points="133.48 342.36 125.93 338.27 122.75 339.89 124.37 343.07 137.62 350.29 142.18 347.97 125.34 314.78 120.69 317.14 133.48 342.36"/>
        <polygon class="cls-4" points="103.34 325.95 98.78 328.26 115.62 361.45 120.28 359.09 107.48 333.88 115.03 337.95 118.21 336.34 116.59 333.16 103.34 325.95"/>
      </g>
      <g>
        <polygon class="cls-4" points="161.04 295.83 153.49 291.74 150.31 293.36 151.93 296.54 165.18 303.76 169.74 301.44 152.9 268.25 148.24 270.61 161.04 295.83"/>
        <polygon class="cls-4" points="130.9 279.42 126.33 281.73 143.18 314.92 147.83 312.56 135.04 287.35 142.59 291.42 145.77 289.81 144.15 286.63 130.9 279.42"/>
      </g>
      <g>
        <polygon class="cls-4" points="214.86 301.06 207.31 296.98 204.13 298.59 205.75 301.77 219.01 308.99 223.57 306.68 206.72 273.48 202.07 275.85 214.86 301.06"/>
        <polygon class="cls-4" points="184.72 284.65 180.16 286.96 197 320.16 201.66 317.79 188.86 292.58 196.41 296.66 199.59 295.05 197.98 291.87 184.72 284.65"/>
      </g>
      <g>
        <polygon class="cls-4" points="242.42 254.53 234.87 250.45 231.69 252.06 233.31 255.24 246.56 262.46 251.12 260.15 234.28 226.95 229.63 229.32 242.42 254.53"/>
        <polygon class="cls-4" points="212.28 238.12 207.72 240.43 224.56 273.63 229.22 271.26 216.42 246.05 223.97 250.13 227.15 248.52 225.53 245.34 212.28 238.12"/>
      </g>
      <g>
        <polygon class="cls-4" points="296.24 259.76 288.7 255.68 285.52 257.3 287.13 260.47 300.39 267.69 304.95 265.38 288.11 232.19 283.45 234.55 296.24 259.76"/>
        <polygon class="cls-4" points="266.1 243.35 261.54 245.67 278.38 278.86 283.04 276.5 270.25 251.28 277.8 255.36 280.97 253.75 279.36 250.57 266.1 243.35"/>
      </g>
      <g>
        <polygon class="cls-4" points="323.8 213.23 316.25 209.15 313.07 210.77 314.69 213.94 327.94 221.16 332.51 218.85 315.66 185.66 311.01 188.02 323.8 213.23"/>
        <polygon class="cls-4" points="293.66 196.82 289.1 199.14 305.94 232.33 310.6 229.97 297.8 204.75 305.35 208.83 308.53 207.22 306.92 204.04 293.66 196.82"/>
      </g>
      <polygon class="cls-4" points="347.48 202.06 342.92 204.37 359.76 237.56 364.42 235.2 351.63 209.99 359.18 214.07 362.36 212.45 360.74 209.28 347.48 202.06"/>
      <polygon class="cls-4" points="-3.02 476.71 -10.56 472.63 -13.74 474.24 -12.13 477.42 1.13 484.64 5.69 482.33 -11.15 449.14 -15.81 451.5 -3.02 476.71"/>
      <g>
        <polygon class="cls-4" points="24.54 430.18 16.99 426.1 13.81 427.71 15.43 430.89 28.68 438.11 33.25 435.8 16.4 402.61 11.75 404.97 24.54 430.18"/>
        <polygon class="cls-4" points="-5.6 413.77 -10.16 416.09 6.68 449.28 11.34 446.92 -1.46 421.7 6.09 425.78 9.27 424.17 7.66 420.99 -5.6 413.77"/>
      </g>
      <g>
        <polygon class="cls-4" points="78.37 435.42 70.82 431.33 67.64 432.95 69.25 436.13 82.51 443.35 87.07 441.03 70.23 407.84 65.57 410.2 78.37 435.42"/>
        <polygon class="cls-4" points="48.22 419.01 43.66 421.32 60.5 454.51 65.16 452.15 52.37 426.94 59.92 431.02 63.1 429.4 61.48 426.22 48.22 419.01"/>
      </g>
      <g>
        <polygon class="cls-4" points="105.92 388.89 98.38 384.8 95.19 386.42 96.81 389.6 110.07 396.82 114.63 394.5 97.78 361.31 93.13 363.67 105.92 388.89"/>
        <polygon class="cls-4" points="75.78 372.48 71.22 374.79 88.06 407.98 92.72 405.62 79.92 380.41 87.47 384.49 90.65 382.87 89.04 379.69 75.78 372.48"/>
      </g>
      <g>
        <polygon class="cls-4" points="159.75 394.12 152.2 390.04 149.02 391.65 150.64 394.83 163.89 402.05 168.45 399.74 151.61 366.54 146.95 368.91 159.75 394.12"/>
        <polygon class="cls-4" points="129.61 377.71 125.04 380.02 141.89 413.22 146.54 410.85 133.75 385.64 141.3 389.72 144.48 388.11 142.86 384.93 129.61 377.71"/>
      </g>
      <g>
        <polygon class="cls-4" points="187.31 347.59 179.76 343.51 176.58 345.12 178.19 348.3 191.45 355.52 196.01 353.21 179.17 320.01 174.51 322.38 187.31 347.59"/>
        <polygon class="cls-4" points="157.16 331.18 152.6 333.49 169.44 366.69 174.1 364.32 161.31 339.11 168.86 343.19 172.04 341.58 170.42 338.4 157.16 331.18"/>
      </g>
      <g>
        <polygon class="cls-4" points="241.13 352.82 233.58 348.74 230.4 350.36 232.02 353.53 245.27 360.75 249.83 358.44 232.99 325.25 228.34 327.61 241.13 352.82"/>
        <polygon class="cls-4" points="210.99 336.41 206.43 338.73 223.27 371.92 227.93 369.56 215.13 344.34 222.68 348.42 225.86 346.81 224.24 343.63 210.99 336.41"/>
      </g>
      <g>
        <polygon class="cls-4" points="268.69 306.29 261.14 302.21 257.96 303.83 259.58 307 272.83 314.22 277.39 311.91 260.55 278.72 255.89 281.08 268.69 306.29"/>
        <polygon class="cls-4" points="238.55 289.88 233.98 292.2 250.83 325.39 255.48 323.03 242.69 297.81 250.24 301.89 253.42 300.28 251.8 297.1 238.55 289.88"/>
      </g>
      <g>
        <polygon class="cls-4" points="322.51 311.53 314.96 307.45 311.78 309.06 313.4 312.24 326.65 319.46 331.22 317.14 314.37 283.95 309.72 286.31 322.51 311.53"/>
        <polygon class="cls-4" points="292.37 295.12 287.81 297.43 304.65 330.62 309.31 328.26 296.51 303.05 304.06 307.13 307.24 305.51 305.63 302.34 292.37 295.12"/>
      </g>
      <g>
        <polygon class="cls-4" points="350.07 265 342.52 260.92 339.34 262.53 340.96 265.71 354.21 272.93 358.77 270.61 341.93 237.42 337.27 239.78 350.07 265"/>
        <polygon class="cls-4" points="319.93 248.59 315.36 250.9 332.21 284.09 336.86 281.73 324.07 256.52 331.62 260.6 334.8 258.98 333.18 255.81 319.93 248.59"/>
      </g>
      <g>
        <polygon class="cls-4" points="23.25 528.48 15.7 524.39 12.52 526.01 14.14 529.19 27.39 536.41 31.96 534.09 15.11 500.9 10.46 503.26 23.25 528.48"/>
        <polygon class="cls-4" points="-6.89 512.07 -11.45 514.38 5.39 547.57 10.05 545.21 -2.75 520 4.8 524.08 7.98 522.46 6.36 519.28 -6.89 512.07"/>
      </g>
      <g>
        <polygon class="cls-4" points="50.81 481.95 43.26 477.86 40.08 479.48 41.7 482.66 54.95 489.88 59.51 487.56 42.67 454.37 38.01 456.73 50.81 481.95"/>
        <polygon class="cls-4" points="20.67 465.54 16.1 467.85 32.95 501.04 37.6 498.68 24.81 473.47 32.36 477.55 35.54 475.93 33.92 472.75 20.67 465.54"/>
      </g>
      <g>
        <polygon class="cls-4" points="104.63 487.18 97.08 483.1 93.9 484.71 95.52 487.89 108.78 495.11 113.34 492.8 96.49 459.6 91.84 461.97 104.63 487.18"/>
        <polygon class="cls-4" points="74.49 470.77 69.93 473.08 86.77 506.28 91.43 503.91 78.63 478.7 86.18 482.78 89.36 481.17 87.75 477.99 74.49 470.77"/>
      </g>
      <g>
        <polygon class="cls-4" points="132.19 440.65 124.64 436.57 121.46 438.18 123.08 441.36 136.33 448.58 140.89 446.27 124.05 413.07 119.4 415.44 132.19 440.65"/>
        <polygon class="cls-4" points="102.05 424.24 97.49 426.55 114.33 459.75 118.99 457.38 106.19 432.17 113.74 436.25 116.92 434.64 115.3 431.46 102.05 424.24"/>
      </g>
      <g>
        <polygon class="cls-4" points="186.01 445.88 178.47 441.8 175.29 443.42 176.9 446.59 190.16 453.81 194.72 451.5 177.88 418.31 173.22 420.67 186.01 445.88"/>
        <polygon class="cls-4" points="155.87 429.47 151.31 431.79 168.15 464.98 172.81 462.62 160.02 437.4 167.57 441.48 170.74 439.87 169.13 436.69 155.87 429.47"/>
      </g>
      <g>
        <polygon class="cls-4" points="213.57 399.35 206.02 395.27 202.84 396.89 204.46 400.06 217.72 407.28 222.28 404.97 205.43 371.78 200.78 374.14 213.57 399.35"/>
        <polygon class="cls-4" points="183.43 382.94 178.87 385.26 195.71 418.45 200.37 416.09 187.57 390.87 195.12 394.95 198.3 393.34 196.69 390.16 183.43 382.94"/>
      </g>
      <g>
        <polygon class="cls-4" points="267.4 404.59 259.85 400.51 256.67 402.12 258.29 405.3 271.54 412.52 276.1 410.2 259.26 377.01 254.6 379.38 267.4 404.59"/>
        <polygon class="cls-4" points="237.26 388.18 232.69 390.49 249.54 423.68 254.19 421.32 241.4 396.11 248.95 400.19 252.13 398.57 250.51 395.4 237.26 388.18"/>
      </g>
      <g>
        <polygon class="cls-4" points="294.95 358.06 287.41 353.98 284.22 355.59 285.84 358.77 299.1 365.99 303.66 363.67 286.82 330.48 282.16 332.84 294.95 358.06"/>
        <polygon class="cls-4" points="264.81 341.65 260.25 343.96 277.09 377.15 281.75 374.79 268.96 349.58 276.5 353.66 279.68 352.04 278.07 348.87 264.81 341.65"/>
      </g>
      <g>
        <polygon class="cls-4" points="348.78 363.29 341.23 359.21 338.05 360.82 339.67 364 352.92 371.22 357.48 368.91 340.64 335.72 335.98 338.08 348.78 363.29"/>
        <polygon class="cls-4" points="318.64 346.88 314.07 349.2 330.92 382.39 335.57 380.02 322.78 354.81 330.33 358.89 333.51 357.28 331.89 354.1 318.64 346.88"/>
      </g>
      <polygon class="cls-4" points="346.19 300.35 341.63 302.67 358.47 335.86 363.13 333.49 350.34 308.28 357.89 312.36 361.07 310.75 359.45 307.57 346.19 300.35"/>
      <polygon class="cls-4" points="-4.31 575.01 -11.85 570.93 -15.04 572.54 -13.42 575.72 -.16 582.94 4.4 580.62 -12.44 547.43 -17.1 549.79 -4.31 575.01"/>
      <g>
        <polygon class="cls-4" points="49.52 580.24 41.97 576.16 38.79 577.77 40.41 580.95 53.66 588.17 58.22 585.86 41.38 552.66 36.72 555.03 49.52 580.24"/>
        <polygon class="cls-4" points="19.38 563.83 14.81 566.15 31.66 599.34 36.31 596.97 23.52 571.76 31.07 575.84 34.25 574.23 32.63 571.05 19.38 563.83"/>
      </g>
      <g>
        <polygon class="cls-4" points="77.08 533.71 69.53 529.63 66.35 531.24 67.96 534.42 81.22 541.64 85.78 539.33 68.94 506.13 64.28 508.5 77.08 533.71"/>
        <polygon class="cls-4" points="46.93 517.3 42.37 519.62 59.21 552.81 63.87 550.44 51.08 525.23 58.63 529.31 61.81 527.7 60.19 524.52 46.93 517.3"/>
      </g>
      <g>
        <polygon class="cls-4" points="130.9 538.94 123.35 534.86 120.17 536.48 121.79 539.65 135.04 546.87 139.6 544.56 122.76 511.37 118.11 513.73 130.9 538.94"/>
        <polygon class="cls-4" points="100.76 522.53 96.2 524.85 113.04 558.04 117.7 555.68 104.9 530.46 112.45 534.54 115.63 532.93 114.01 529.75 100.76 522.53"/>
      </g>
      <g>
        <polygon class="cls-4" points="158.46 492.41 150.91 488.33 147.73 489.95 149.35 493.12 162.6 500.34 167.16 498.03 150.32 464.84 145.66 467.2 158.46 492.41"/>
        <polygon class="cls-4" points="128.32 476 123.75 478.32 140.6 511.51 145.25 509.15 132.46 483.93 140.01 488.01 143.19 486.4 141.57 483.22 128.32 476"/>
      </g>
      <g>
        <polygon class="cls-4" points="212.28 497.65 204.73 493.57 201.55 495.18 203.17 498.36 216.42 505.58 220.99 503.26 204.14 470.07 199.49 472.44 212.28 497.65"/>
        <polygon class="cls-4" points="182.14 481.24 177.58 483.55 194.42 516.74 199.08 514.38 186.28 489.17 193.83 493.25 197.01 491.63 195.4 488.46 182.14 481.24"/>
      </g>
      <g>
        <polygon class="cls-4" points="239.84 451.12 232.29 447.04 229.11 448.65 230.73 451.83 243.98 459.05 248.54 456.73 231.7 423.54 227.04 425.91 239.84 451.12"/>
        <polygon class="cls-4" points="209.7 434.71 205.14 437.02 221.98 470.21 226.63 467.85 213.84 442.64 221.39 446.72 224.57 445.1 222.95 441.93 209.7 434.71"/>
      </g>
      <g>
        <polygon class="cls-4" points="293.66 456.35 286.12 452.27 282.93 453.88 284.55 457.06 297.81 464.28 302.37 461.97 285.52 428.78 280.87 431.14 293.66 456.35"/>
        <polygon class="cls-4" points="263.52 439.94 258.96 442.26 275.8 475.45 280.46 473.09 267.67 447.87 275.21 451.95 278.39 450.34 276.78 447.16 263.52 439.94"/>
      </g>
      <g>
        <polygon class="cls-4" points="321.22 409.82 313.67 405.74 310.49 407.35 312.11 410.53 325.36 417.75 329.92 415.44 313.08 382.25 308.43 384.61 321.22 409.82"/>
        <polygon class="cls-4" points="291.08 393.41 286.52 395.73 303.36 428.92 308.02 426.56 295.22 401.34 302.77 405.42 305.95 403.81 304.33 400.63 291.08 393.41"/>
      </g>
      <polygon class="cls-4" points="344.9 398.65 340.34 400.96 357.18 434.15 361.84 431.79 349.05 406.58 356.6 410.65 359.78 409.04 358.16 405.86 344.9 398.65"/>
      <g>
        <polygon class="cls-4" points="103.34 585.47 95.79 581.39 92.61 583.01 94.23 586.18 107.49 593.4 112.05 591.09 95.2 557.9 90.55 560.26 103.34 585.47"/>
        <polygon class="cls-4" points="73.2 569.06 68.64 571.38 85.48 604.57 90.14 602.21 77.34 576.99 84.89 581.07 88.07 579.46 86.46 576.28 73.2 569.06"/>
      </g>
      <g>
        <polygon class="cls-4" points="157.17 590.71 149.62 586.63 146.44 588.24 148.06 591.42 161.31 598.64 165.87 596.32 149.03 563.13 144.37 565.5 157.17 590.71"/>
        <polygon class="cls-4" points="127.03 574.3 122.46 576.61 139.31 609.8 143.96 607.44 131.17 582.23 138.72 586.31 141.9 584.69 140.28 581.52 127.03 574.3"/>
      </g>
      <g>
        <polygon class="cls-4" points="184.72 544.18 177.18 540.1 174 541.71 175.61 544.89 188.87 552.11 193.43 549.79 176.59 516.6 171.93 518.97 184.72 544.18"/>
        <polygon class="cls-4" points="154.58 527.77 150.02 530.08 166.86 563.27 171.52 560.91 158.73 535.7 166.28 539.78 169.45 538.16 167.84 534.99 154.58 527.77"/>
      </g>
      <g>
        <polygon class="cls-4" points="238.55 549.41 231 545.33 227.82 546.94 229.44 550.12 242.69 557.34 247.25 555.03 230.41 521.84 225.75 524.2 238.55 549.41"/>
        <polygon class="cls-4" points="208.41 533 203.84 535.32 220.69 568.51 225.34 566.15 212.55 540.93 220.1 545.01 223.28 543.4 221.66 540.22 208.41 533"/>
      </g>
      <g>
        <polygon class="cls-4" points="266.11 502.88 258.56 498.8 255.38 500.41 256.99 503.59 270.25 510.81 274.81 508.5 257.97 475.31 253.31 477.67 266.11 502.88"/>
        <polygon class="cls-4" points="235.96 486.47 231.4 488.79 248.24 521.98 252.9 519.62 240.11 494.4 247.66 498.48 250.84 496.87 249.22 493.69 235.96 486.47"/>
      </g>
      <g>
        <polygon class="cls-4" points="319.93 508.12 312.38 504.03 309.2 505.65 310.82 508.83 324.07 516.05 328.63 513.73 311.79 480.54 307.14 482.9 319.93 508.12"/>
        <polygon class="cls-4" points="289.79 491.71 285.23 494.02 302.07 527.21 306.73 524.85 293.93 499.64 301.48 503.72 304.66 502.1 303.04 498.92 289.79 491.71"/>
      </g>
      <g>
        <polygon class="cls-4" points="347.49 461.59 339.94 457.5 336.76 459.12 338.38 462.3 351.63 469.52 356.19 467.2 339.35 434.01 334.69 436.37 347.49 461.59"/>
        <polygon class="cls-4" points="317.35 445.18 312.78 447.49 329.63 480.68 334.28 478.32 321.49 453.11 329.04 457.19 332.22 455.57 330.6 452.39 317.35 445.18"/>
      </g>
      <g>
        <polygon class="cls-4" points="210.99 595.94 203.44 591.86 200.26 593.47 201.88 596.65 215.13 603.87 219.7 601.56 202.85 568.37 198.2 570.73 210.99 595.94"/>
        <polygon class="cls-4" points="180.85 579.53 176.29 581.85 193.13 615.04 197.79 612.68 184.99 587.46 192.54 591.54 195.72 589.93 194.11 586.75 180.85 579.53"/>
      </g>
      <g>
        <polygon class="cls-4" points="264.82 601.18 257.27 597.09 254.09 598.71 255.7 601.89 268.96 609.11 273.52 606.79 256.68 573.6 252.02 575.96 264.82 601.18"/>
        <polygon class="cls-4" points="234.67 584.77 230.11 587.08 246.95 620.27 251.61 617.91 238.82 592.7 246.37 596.78 249.55 595.16 247.93 591.98 234.67 584.77"/>
      </g>
      <g>
        <polygon class="cls-4" points="292.37 554.65 284.82 550.56 281.64 552.18 283.26 555.36 296.52 562.58 301.08 560.26 284.23 527.07 279.58 529.43 292.37 554.65"/>
        <polygon class="cls-4" points="262.23 538.24 257.67 540.55 274.51 573.74 279.17 571.38 266.37 546.17 273.92 550.25 277.1 548.63 275.49 545.45 262.23 538.24"/>
      </g>
      <g>
        <polygon class="cls-4" points="346.2 559.88 338.65 555.8 335.47 557.41 337.09 560.59 350.34 567.81 354.9 565.5 338.06 532.3 333.4 534.67 346.2 559.88"/>
        <polygon class="cls-4" points="316.06 543.47 311.49 545.78 328.34 578.98 332.99 576.61 320.2 551.4 327.75 555.48 330.93 553.87 329.31 550.69 316.06 543.47"/>
      </g>
      <polygon class="cls-4" points="343.61 496.94 339.05 499.25 355.89 532.45 360.55 530.08 347.76 504.87 355.31 508.95 358.48 507.34 356.87 504.16 343.61 496.94"/>
      <polygon class="cls-4" points="318.64 606.41 311.09 602.33 307.91 603.94 309.53 607.12 322.78 614.34 327.34 612.03 310.5 578.83 305.85 581.2 318.64 606.41"/>
    </g>
  </g>
</svg>